%TF.GenerationSoftware,KiCad,Pcbnew,8.0.5*%
%TF.CreationDate,2024-12-20T12:43:02-05:00*%
%TF.ProjectId,coffee-scale,636f6666-6565-42d7-9363-616c652e6b69,rev?*%
%TF.SameCoordinates,Original*%
%TF.FileFunction,Paste,Top*%
%TF.FilePolarity,Positive*%
%FSLAX46Y46*%
G04 Gerber Fmt 4.6, Leading zero omitted, Abs format (unit mm)*
G04 Created by KiCad (PCBNEW 8.0.5) date 2024-12-20 12:43:02*
%MOMM*%
%LPD*%
G01*
G04 APERTURE LIST*
G04 Aperture macros list*
%AMRoundRect*
0 Rectangle with rounded corners*
0 $1 Rounding radius*
0 $2 $3 $4 $5 $6 $7 $8 $9 X,Y pos of 4 corners*
0 Add a 4 corners polygon primitive as box body*
4,1,4,$2,$3,$4,$5,$6,$7,$8,$9,$2,$3,0*
0 Add four circle primitives for the rounded corners*
1,1,$1+$1,$2,$3*
1,1,$1+$1,$4,$5*
1,1,$1+$1,$6,$7*
1,1,$1+$1,$8,$9*
0 Add four rect primitives between the rounded corners*
20,1,$1+$1,$2,$3,$4,$5,0*
20,1,$1+$1,$4,$5,$6,$7,0*
20,1,$1+$1,$6,$7,$8,$9,0*
20,1,$1+$1,$8,$9,$2,$3,0*%
%AMFreePoly0*
4,1,13,0.900000,0.500000,3.600000,0.500000,3.600000,-0.500000,0.900000,-0.500000,0.400000,-1.000000,-0.400000,-1.000000,-0.900000,-0.500000,-3.600000,-0.500000,-3.600000,0.500000,-0.900000,0.500000,-0.400000,1.000000,0.400000,1.000000,0.900000,0.500000,0.900000,0.500000,$1*%
G04 Aperture macros list end*
%ADD10RoundRect,0.150000X-0.150000X0.512500X-0.150000X-0.512500X0.150000X-0.512500X0.150000X0.512500X0*%
%ADD11RoundRect,0.250000X-0.800000X0.450000X-0.800000X-0.450000X0.800000X-0.450000X0.800000X0.450000X0*%
%ADD12RoundRect,0.250000X-0.625000X0.400000X-0.625000X-0.400000X0.625000X-0.400000X0.625000X0.400000X0*%
%ADD13RoundRect,0.250000X-0.412500X-0.650000X0.412500X-0.650000X0.412500X0.650000X-0.412500X0.650000X0*%
%ADD14RoundRect,0.250000X-0.450000X-0.800000X0.450000X-0.800000X0.450000X0.800000X-0.450000X0.800000X0*%
%ADD15RoundRect,0.150000X-0.850000X-0.150000X0.850000X-0.150000X0.850000X0.150000X-0.850000X0.150000X0*%
%ADD16RoundRect,0.175000X0.175000X-1.075000X0.175000X1.075000X-0.175000X1.075000X-0.175000X-1.075000X0*%
%ADD17FreePoly0,90.000000*%
%ADD18RoundRect,0.250000X-0.400000X-0.625000X0.400000X-0.625000X0.400000X0.625000X-0.400000X0.625000X0*%
%ADD19RoundRect,0.150000X0.512500X0.150000X-0.512500X0.150000X-0.512500X-0.150000X0.512500X-0.150000X0*%
%ADD20RoundRect,0.250000X0.625000X-0.400000X0.625000X0.400000X-0.625000X0.400000X-0.625000X-0.400000X0*%
%ADD21RoundRect,0.250000X0.650000X-0.412500X0.650000X0.412500X-0.650000X0.412500X-0.650000X-0.412500X0*%
%ADD22RoundRect,0.150000X-0.587500X-0.150000X0.587500X-0.150000X0.587500X0.150000X-0.587500X0.150000X0*%
%ADD23RoundRect,0.250001X0.462499X0.624999X-0.462499X0.624999X-0.462499X-0.624999X0.462499X-0.624999X0*%
%ADD24R,1.550000X1.300000*%
%ADD25RoundRect,0.250000X-0.650000X0.412500X-0.650000X-0.412500X0.650000X-0.412500X0.650000X0.412500X0*%
%ADD26RoundRect,0.150000X-0.150000X0.587500X-0.150000X-0.587500X0.150000X-0.587500X0.150000X0.587500X0*%
%ADD27RoundRect,0.250000X0.412500X0.650000X-0.412500X0.650000X-0.412500X-0.650000X0.412500X-0.650000X0*%
%ADD28R,0.900000X0.900000*%
%ADD29R,1.500000X0.900000*%
%ADD30R,0.900000X1.500000*%
G04 APERTURE END LIST*
D10*
%TO.C,Q2*%
X153750000Y-115750000D03*
X151850000Y-115750000D03*
X152800000Y-118025000D03*
%TD*%
D11*
%TO.C,D4*%
X184500000Y-105300000D03*
X184500000Y-109700000D03*
%TD*%
D12*
%TO.C,R4*%
X142380000Y-99200000D03*
X142380000Y-102300000D03*
%TD*%
D13*
%TO.C,C11*%
X167187500Y-121250000D03*
X170312500Y-121250000D03*
%TD*%
D12*
%TO.C,R1*%
X132000000Y-123250000D03*
X132000000Y-126350000D03*
%TD*%
%TO.C,R7*%
X151000000Y-110700000D03*
X151000000Y-113800000D03*
%TD*%
%TO.C,R2*%
X141500000Y-123250000D03*
X141500000Y-126350000D03*
%TD*%
D14*
%TO.C,D1*%
X129300000Y-113750000D03*
X133700000Y-113750000D03*
%TD*%
D15*
%TO.C,U2*%
X151250000Y-100055000D03*
X151250000Y-101325000D03*
X151250000Y-102595000D03*
X151250000Y-103865000D03*
X151250000Y-105135000D03*
X151250000Y-106405000D03*
X151250000Y-107675000D03*
X151250000Y-108945000D03*
X156250000Y-108945000D03*
X156250000Y-107675000D03*
X156250000Y-106405000D03*
X156250000Y-105135000D03*
X156250000Y-103865000D03*
X156250000Y-102595000D03*
X156250000Y-101325000D03*
X156250000Y-100055000D03*
%TD*%
D16*
%TO.C,U4*%
X136250000Y-133700000D03*
D17*
X137750000Y-131350000D03*
D16*
X139250000Y-133700000D03*
X139250000Y-129000000D03*
X136250000Y-129000000D03*
%TD*%
D18*
%TO.C,R9*%
X131750000Y-111000000D03*
X134850000Y-111000000D03*
%TD*%
D19*
%TO.C,U3*%
X140025000Y-102400000D03*
X140025000Y-101450000D03*
X140025000Y-100500000D03*
X137750000Y-100500000D03*
X137750000Y-102400000D03*
%TD*%
D20*
%TO.C,R6*%
X145000000Y-119050000D03*
X145000000Y-115950000D03*
%TD*%
%TO.C,R8*%
X148750000Y-113875000D03*
X148750000Y-110775000D03*
%TD*%
D21*
%TO.C,C2*%
X134500000Y-126375000D03*
X134500000Y-123250000D03*
%TD*%
D22*
%TO.C,Q3*%
X182375000Y-100800000D03*
X182375000Y-102700000D03*
X184250000Y-101750000D03*
%TD*%
D23*
%TO.C,D2*%
X140725000Y-109000000D03*
X137750000Y-109000000D03*
%TD*%
D21*
%TO.C,C9*%
X146250000Y-113875000D03*
X146250000Y-110750000D03*
%TD*%
D24*
%TO.C,SW3*%
X162000000Y-128750000D03*
X169950000Y-128750000D03*
X162000000Y-133250000D03*
X169950000Y-133250000D03*
%TD*%
D25*
%TO.C,C6*%
X146000000Y-102937500D03*
X146000000Y-106062500D03*
%TD*%
D24*
%TO.C,SW1*%
X141525000Y-128750000D03*
X149475000Y-128750000D03*
X141525000Y-133250000D03*
X149475000Y-133250000D03*
%TD*%
%TO.C,SW2*%
X151775000Y-128750000D03*
X159725000Y-128750000D03*
X151775000Y-133250000D03*
X159725000Y-133250000D03*
%TD*%
D20*
%TO.C,R11*%
X180000000Y-103600000D03*
X180000000Y-100500000D03*
%TD*%
D18*
%TO.C,R10*%
X137750000Y-104500000D03*
X140850000Y-104500000D03*
%TD*%
D21*
%TO.C,C4*%
X153500000Y-113812500D03*
X153500000Y-110687500D03*
%TD*%
D20*
%TO.C,R3*%
X143000000Y-107350000D03*
X143000000Y-104250000D03*
%TD*%
%TO.C,R5*%
X147250000Y-119050000D03*
X147250000Y-115950000D03*
%TD*%
D26*
%TO.C,Q1*%
X138750000Y-123750000D03*
X136850000Y-123750000D03*
X137800000Y-125625000D03*
%TD*%
D27*
%TO.C,C10*%
X170312500Y-123750000D03*
X167187500Y-123750000D03*
%TD*%
D28*
%TO.C,U1*%
X165485000Y-107060000D03*
X165485000Y-108460000D03*
X165485000Y-109860000D03*
X166885000Y-107060000D03*
X166885000Y-108460000D03*
X166885000Y-109860000D03*
X168285000Y-107060000D03*
X168285000Y-108460000D03*
X168285000Y-109860000D03*
D29*
X159635000Y-100740000D03*
X159635000Y-102010000D03*
X159635000Y-103280000D03*
X159635000Y-104550000D03*
X159635000Y-105820000D03*
X159635000Y-107090000D03*
X159635000Y-108360000D03*
X159635000Y-109630000D03*
X159635000Y-110900000D03*
X159635000Y-112170000D03*
X159635000Y-113440000D03*
X159635000Y-114710000D03*
X159635000Y-115980000D03*
X159635000Y-117250000D03*
D30*
X161400000Y-118500000D03*
X162670000Y-118500000D03*
X163940000Y-118500000D03*
X165210000Y-118500000D03*
X166480000Y-118500000D03*
X167750000Y-118500000D03*
X169020000Y-118500000D03*
X170290000Y-118500000D03*
X171560000Y-118500000D03*
X172830000Y-118500000D03*
X174100000Y-118500000D03*
X175370000Y-118500000D03*
D29*
X177135000Y-117250000D03*
X177135000Y-115980000D03*
X177135000Y-114710000D03*
X177135000Y-113440000D03*
X177135000Y-112170000D03*
X177135000Y-110900000D03*
X177135000Y-109630000D03*
X177135000Y-108360000D03*
X177135000Y-107090000D03*
X177135000Y-105820000D03*
X177135000Y-104550000D03*
X177135000Y-103280000D03*
X177135000Y-102010000D03*
X177135000Y-100740000D03*
%TD*%
D12*
%TO.C,R12*%
X172750000Y-120500000D03*
X172750000Y-123600000D03*
%TD*%
D20*
%TO.C,R13*%
X175250000Y-123600000D03*
X175250000Y-120500000D03*
%TD*%
D25*
%TO.C,C1*%
X129500000Y-123250000D03*
X129500000Y-126375000D03*
%TD*%
%TO.C,C7*%
X149750000Y-115937500D03*
X149750000Y-119062500D03*
%TD*%
%TO.C,C8*%
X143750000Y-110750000D03*
X143750000Y-113875000D03*
%TD*%
%TO.C,C5*%
X148500000Y-102937500D03*
X148500000Y-106062500D03*
%TD*%
D13*
%TO.C,C3*%
X145687500Y-108437500D03*
X148812500Y-108437500D03*
%TD*%
M02*
