M48
; DRILL file {KiCad 8.0.5} date 2024-12-20T12:46:51-0500
; FORMAT={-:-/ absolute / metric / decimal}
; #@! TF.CreationDate,2024-12-20T12:46:51-05:00
; #@! TF.GenerationSoftware,Kicad,Pcbnew,8.0.5
; #@! TF.FileFunction,Plated,1,2,PTH
FMAT,2
METRIC
; #@! TA.AperFunction,Plated,PTH,ComponentDrill
T1C0.200
; #@! TA.AperFunction,Plated,PTH,ViaDrill
T2C0.300
; #@! TA.AperFunction,Plated,PTH,ComponentDrill
T3C0.400
; #@! TA.AperFunction,Plated,PTH,ComponentDrill
T4C0.600
; #@! TA.AperFunction,Plated,PTH,ComponentDrill
T5C0.750
; #@! TA.AperFunction,Plated,PTH,ComponentDrill
T6C1.000
; #@! TA.AperFunction,Plated,PTH,ComponentDrill
T7C2.500
%
G90
G05
T1
X165.485Y-107.76
X165.485Y-109.16
X166.185Y-107.06
X166.185Y-108.46
X166.185Y-109.86
X166.885Y-107.76
X166.885Y-109.16
X167.585Y-107.06
X167.585Y-108.46
X167.585Y-109.86
X168.285Y-107.76
X168.285Y-109.16
T2
X129.5Y-125.25
X130.5Y-111.25
X131.0Y-101.75
X131.475Y-107.725
X134.5Y-124.25
X135.0Y-101.75
X136.25Y-114.25
X136.25Y-127.25
X136.25Y-130.75
X137.75Y-111.75
X137.75Y-116.5
X139.25Y-131.75
X139.75Y-106.75
X140.0Y-114.25
X141.0Y-101.45
X141.5Y-125.25
X141.5Y-134.5
X142.38Y-101.22
X143.75Y-112.75
X145.25Y-120.0
X146.0Y-105.0
X146.25Y-112.75
X146.75Y-121.25
X147.75Y-108.5
X147.75Y-120.65
X148.5Y-105.0
X148.75Y-112.75
X149.5Y-134.5
X149.75Y-117.25
X151.334Y-117.556
X151.75Y-134.5
X151.875Y-118.875
X152.575Y-105.175
X152.701Y-108.701
X152.75Y-107.675
X152.875Y-116.125
X153.5Y-111.75
X154.75Y-106.5
X154.75Y-112.5
X154.75Y-123.5
X154.845Y-102.595
X156.25Y-109.75
X157.785Y-100.759
X158.385Y-111.58
X158.404Y-114.05
X159.75Y-134.5
X161.0Y-100.759
X161.0Y-116.75
X161.25Y-121.5
X161.25Y-123.325
X162.0Y-134.5
X162.5Y-121.5
X162.5Y-123.325
X164.0Y-121.5
X164.0Y-123.325
X169.25Y-121.25
X169.25Y-123.75
X170.0Y-134.5
X175.285Y-109.16
X178.5Y-109.16
X182.375Y-103.375
X188.25Y-115.3
X188.25Y-116.5
X192.75Y-128.25
T3
X132.425Y-101.6
X132.425Y-102.45
X132.425Y-103.3
X132.425Y-104.15
X132.425Y-105.0
X132.425Y-105.85
X132.425Y-106.7
X132.425Y-107.55
X133.775Y-101.6
X133.775Y-102.45
X133.775Y-103.3
X133.775Y-104.15
X133.775Y-105.0
X133.775Y-105.85
X133.775Y-106.7
X133.775Y-107.55
T5
X134.5Y-117.75
X134.5Y-119.75
T6
X144.92Y-124.5
X147.46Y-124.5
X150.0Y-124.5
X152.54Y-124.5
X173.01Y-134.0
X175.55Y-134.0
X178.09Y-134.0
X180.63Y-134.0
X183.17Y-134.0
X185.71Y-134.0
X188.25Y-134.0
X190.79Y-134.0
X192.75Y-101.75
X192.75Y-109.35
T7
X131.5Y-132.0
X133.0Y-96.25
X195.5Y-96.5
X195.5Y-132.0
T4
G00X129.815Y-100.25
M15
G01X129.015Y-100.25
M16
G05
G00X129.815Y-108.9
M15
G01X129.015Y-108.9
M16
G05
G00X133.545Y-100.25
M15
G01X132.045Y-100.25
M16
G05
G00X133.545Y-108.9
M15
G01X132.045Y-108.9
M16
G05
M30
