%TF.GenerationSoftware,KiCad,Pcbnew,8.0.5*%
%TF.CreationDate,2024-12-20T12:53:45-05:00*%
%TF.ProjectId,coffee-scale,636f6666-6565-42d7-9363-616c652e6b69,rev?*%
%TF.SameCoordinates,Original*%
%TF.FileFunction,Drillmap*%
%TF.FilePolarity,Positive*%
%FSLAX45Y45*%
G04 Gerber Fmt 4.5, Leading zero omitted, Abs format (unit mm)*
G04 Created by KiCad (PCBNEW 8.0.5) date 2024-12-20 12:53:45*
%MOMM*%
%LPD*%
G01*
G04 APERTURE LIST*
%ADD10C,0.050000*%
%ADD11C,0.200000*%
G04 APERTURE END LIST*
D10*
X12775000Y-9250000D02*
X19925000Y-9250000D01*
X19925000Y-13575000D01*
X12775000Y-13575000D01*
X12775000Y-9250000D01*
D11*
X13033277Y-13888984D02*
X13033277Y-13688984D01*
X13033277Y-13688984D02*
X13080896Y-13688984D01*
X13080896Y-13688984D02*
X13109467Y-13698508D01*
X13109467Y-13698508D02*
X13128515Y-13717555D01*
X13128515Y-13717555D02*
X13138039Y-13736603D01*
X13138039Y-13736603D02*
X13147562Y-13774698D01*
X13147562Y-13774698D02*
X13147562Y-13803269D01*
X13147562Y-13803269D02*
X13138039Y-13841365D01*
X13138039Y-13841365D02*
X13128515Y-13860412D01*
X13128515Y-13860412D02*
X13109467Y-13879460D01*
X13109467Y-13879460D02*
X13080896Y-13888984D01*
X13080896Y-13888984D02*
X13033277Y-13888984D01*
X13233277Y-13888984D02*
X13233277Y-13755650D01*
X13233277Y-13793746D02*
X13242801Y-13774698D01*
X13242801Y-13774698D02*
X13252324Y-13765174D01*
X13252324Y-13765174D02*
X13271372Y-13755650D01*
X13271372Y-13755650D02*
X13290420Y-13755650D01*
X13357086Y-13888984D02*
X13357086Y-13755650D01*
X13357086Y-13688984D02*
X13347562Y-13698508D01*
X13347562Y-13698508D02*
X13357086Y-13708031D01*
X13357086Y-13708031D02*
X13366610Y-13698508D01*
X13366610Y-13698508D02*
X13357086Y-13688984D01*
X13357086Y-13688984D02*
X13357086Y-13708031D01*
X13480896Y-13888984D02*
X13461848Y-13879460D01*
X13461848Y-13879460D02*
X13452324Y-13860412D01*
X13452324Y-13860412D02*
X13452324Y-13688984D01*
X13585658Y-13888984D02*
X13566610Y-13879460D01*
X13566610Y-13879460D02*
X13557086Y-13860412D01*
X13557086Y-13860412D02*
X13557086Y-13688984D01*
X13814229Y-13888984D02*
X13814229Y-13688984D01*
X13814229Y-13688984D02*
X13880896Y-13831841D01*
X13880896Y-13831841D02*
X13947562Y-13688984D01*
X13947562Y-13688984D02*
X13947562Y-13888984D01*
X14128515Y-13888984D02*
X14128515Y-13784222D01*
X14128515Y-13784222D02*
X14118991Y-13765174D01*
X14118991Y-13765174D02*
X14099943Y-13755650D01*
X14099943Y-13755650D02*
X14061848Y-13755650D01*
X14061848Y-13755650D02*
X14042801Y-13765174D01*
X14128515Y-13879460D02*
X14109467Y-13888984D01*
X14109467Y-13888984D02*
X14061848Y-13888984D01*
X14061848Y-13888984D02*
X14042801Y-13879460D01*
X14042801Y-13879460D02*
X14033277Y-13860412D01*
X14033277Y-13860412D02*
X14033277Y-13841365D01*
X14033277Y-13841365D02*
X14042801Y-13822317D01*
X14042801Y-13822317D02*
X14061848Y-13812793D01*
X14061848Y-13812793D02*
X14109467Y-13812793D01*
X14109467Y-13812793D02*
X14128515Y-13803269D01*
X14223753Y-13755650D02*
X14223753Y-13955650D01*
X14223753Y-13765174D02*
X14242801Y-13755650D01*
X14242801Y-13755650D02*
X14280896Y-13755650D01*
X14280896Y-13755650D02*
X14299943Y-13765174D01*
X14299943Y-13765174D02*
X14309467Y-13774698D01*
X14309467Y-13774698D02*
X14318991Y-13793746D01*
X14318991Y-13793746D02*
X14318991Y-13850888D01*
X14318991Y-13850888D02*
X14309467Y-13869936D01*
X14309467Y-13869936D02*
X14299943Y-13879460D01*
X14299943Y-13879460D02*
X14280896Y-13888984D01*
X14280896Y-13888984D02*
X14242801Y-13888984D01*
X14242801Y-13888984D02*
X14223753Y-13879460D01*
X14404705Y-13869936D02*
X14414229Y-13879460D01*
X14414229Y-13879460D02*
X14404705Y-13888984D01*
X14404705Y-13888984D02*
X14395182Y-13879460D01*
X14395182Y-13879460D02*
X14404705Y-13869936D01*
X14404705Y-13869936D02*
X14404705Y-13888984D01*
X14404705Y-13765174D02*
X14414229Y-13774698D01*
X14414229Y-13774698D02*
X14404705Y-13784222D01*
X14404705Y-13784222D02*
X14395182Y-13774698D01*
X14395182Y-13774698D02*
X14404705Y-13765174D01*
X14404705Y-13765174D02*
X14404705Y-13784222D01*
M02*
