%TF.GenerationSoftware,KiCad,Pcbnew,8.0.5*%
%TF.CreationDate,2024-12-20T12:43:02-05:00*%
%TF.ProjectId,coffee-scale,636f6666-6565-42d7-9363-616c652e6b69,rev?*%
%TF.SameCoordinates,Original*%
%TF.FileFunction,Legend,Top*%
%TF.FilePolarity,Positive*%
%FSLAX46Y46*%
G04 Gerber Fmt 4.6, Leading zero omitted, Abs format (unit mm)*
G04 Created by KiCad (PCBNEW 8.0.5) date 2024-12-20 12:43:02*
%MOMM*%
%LPD*%
G01*
G04 APERTURE LIST*
G04 Aperture macros list*
%AMRoundRect*
0 Rectangle with rounded corners*
0 $1 Rounding radius*
0 $2 $3 $4 $5 $6 $7 $8 $9 X,Y pos of 4 corners*
0 Add a 4 corners polygon primitive as box body*
4,1,4,$2,$3,$4,$5,$6,$7,$8,$9,$2,$3,0*
0 Add four circle primitives for the rounded corners*
1,1,$1+$1,$2,$3*
1,1,$1+$1,$4,$5*
1,1,$1+$1,$6,$7*
1,1,$1+$1,$8,$9*
0 Add four rect primitives between the rounded corners*
20,1,$1+$1,$2,$3,$4,$5,0*
20,1,$1+$1,$4,$5,$6,$7,0*
20,1,$1+$1,$6,$7,$8,$9,0*
20,1,$1+$1,$8,$9,$2,$3,0*%
%AMFreePoly0*
4,1,19,0.500000,-0.750000,0.000000,-0.750000,0.000000,-0.744911,-0.071157,-0.744911,-0.207708,-0.704816,-0.327430,-0.627875,-0.420627,-0.520320,-0.479746,-0.390866,-0.500000,-0.250000,-0.500000,0.250000,-0.479746,0.390866,-0.420627,0.520320,-0.327430,0.627875,-0.207708,0.704816,-0.071157,0.744911,0.000000,0.744911,0.000000,0.750000,0.500000,0.750000,0.500000,-0.750000,0.500000,-0.750000,
$1*%
%AMFreePoly1*
4,1,19,0.000000,0.744911,0.071157,0.744911,0.207708,0.704816,0.327430,0.627875,0.420627,0.520320,0.479746,0.390866,0.500000,0.250000,0.500000,-0.250000,0.479746,-0.390866,0.420627,-0.520320,0.327430,-0.627875,0.207708,-0.704816,0.071157,-0.744911,0.000000,-0.744911,0.000000,-0.750000,-0.500000,-0.750000,-0.500000,0.750000,0.000000,0.750000,0.000000,0.744911,0.000000,0.744911,
$1*%
%AMFreePoly2*
4,1,13,0.900000,0.500000,3.600000,0.500000,3.600000,-0.500000,0.900000,-0.500000,0.400000,-1.000000,-0.400000,-1.000000,-0.900000,-0.500000,-3.600000,-0.500000,-3.600000,0.500000,-0.900000,0.500000,-0.400000,1.000000,0.400000,1.000000,0.900000,0.500000,0.900000,0.500000,$1*%
G04 Aperture macros list end*
%ADD10C,0.150000*%
%ADD11C,0.120000*%
%ADD12RoundRect,0.150000X-0.150000X0.512500X-0.150000X-0.512500X0.150000X-0.512500X0.150000X0.512500X0*%
%ADD13RoundRect,0.250000X-0.800000X0.450000X-0.800000X-0.450000X0.800000X-0.450000X0.800000X0.450000X0*%
%ADD14RoundRect,0.250000X-0.625000X0.350000X-0.625000X-0.350000X0.625000X-0.350000X0.625000X0.350000X0*%
%ADD15O,1.750000X1.200000*%
%ADD16RoundRect,0.250000X-0.625000X0.400000X-0.625000X-0.400000X0.625000X-0.400000X0.625000X0.400000X0*%
%ADD17C,1.000000*%
%ADD18R,1.700000X1.700000*%
%ADD19O,1.700000X1.700000*%
%ADD20RoundRect,0.250000X-0.412500X-0.650000X0.412500X-0.650000X0.412500X0.650000X-0.412500X0.650000X0*%
%ADD21FreePoly0,180.000000*%
%ADD22FreePoly1,180.000000*%
%ADD23RoundRect,0.250000X-0.450000X-0.800000X0.450000X-0.800000X0.450000X0.800000X-0.450000X0.800000X0*%
%ADD24RoundRect,0.150000X-0.850000X-0.150000X0.850000X-0.150000X0.850000X0.150000X-0.850000X0.150000X0*%
%ADD25RoundRect,0.175000X0.175000X-1.075000X0.175000X1.075000X-0.175000X1.075000X-0.175000X-1.075000X0*%
%ADD26FreePoly2,90.000000*%
%ADD27RoundRect,0.250000X-0.400000X-0.625000X0.400000X-0.625000X0.400000X0.625000X-0.400000X0.625000X0*%
%ADD28C,2.900000*%
%ADD29C,5.000000*%
%ADD30RoundRect,0.150000X0.512500X0.150000X-0.512500X0.150000X-0.512500X-0.150000X0.512500X-0.150000X0*%
%ADD31RoundRect,0.250000X0.625000X-0.400000X0.625000X0.400000X-0.625000X0.400000X-0.625000X-0.400000X0*%
%ADD32RoundRect,0.250000X0.650000X-0.412500X0.650000X0.412500X-0.650000X0.412500X-0.650000X-0.412500X0*%
%ADD33RoundRect,0.150000X-0.587500X-0.150000X0.587500X-0.150000X0.587500X0.150000X-0.587500X0.150000X0*%
%ADD34R,2.000000X2.000000*%
%ADD35C,2.000000*%
%ADD36RoundRect,0.250001X0.462499X0.624999X-0.462499X0.624999X-0.462499X-0.624999X0.462499X-0.624999X0*%
%ADD37C,0.700000*%
%ADD38O,2.400000X0.900000*%
%ADD39O,1.700000X0.900000*%
%ADD40R,1.550000X1.300000*%
%ADD41RoundRect,0.250000X-0.650000X0.412500X-0.650000X-0.412500X0.650000X-0.412500X0.650000X0.412500X0*%
%ADD42R,1.000000X1.000000*%
%ADD43RoundRect,0.150000X-0.150000X0.587500X-0.150000X-0.587500X0.150000X-0.587500X0.150000X0.587500X0*%
%ADD44RoundRect,0.250000X0.412500X0.650000X-0.412500X0.650000X-0.412500X-0.650000X0.412500X-0.650000X0*%
%ADD45R,1.500000X0.900000*%
%ADD46R,0.900000X1.500000*%
%ADD47C,0.600000*%
%ADD48R,3.900000X3.900000*%
%ADD49FreePoly0,90.000000*%
%ADD50FreePoly1,90.000000*%
%ADD51FreePoly0,0.000000*%
%ADD52FreePoly1,0.000000*%
G04 APERTURE END LIST*
D10*
X190283866Y-109740951D02*
X190283866Y-108979047D01*
X190664819Y-109359999D02*
X189902914Y-109359999D01*
D11*
%TO.C,Q2*%
X151240000Y-116887500D02*
X151240000Y-116087500D01*
X151240000Y-116887500D02*
X151240000Y-117687500D01*
X154360000Y-116887500D02*
X154360000Y-116087500D01*
X154360000Y-116887500D02*
X154360000Y-117687500D01*
X154640000Y-115827500D02*
X154310000Y-115587500D01*
X154640000Y-115347500D01*
X154640000Y-115827500D01*
G36*
X154640000Y-115827500D02*
G01*
X154310000Y-115587500D01*
X154640000Y-115347500D01*
X154640000Y-115827500D01*
G37*
%TO.C,D4*%
X183140000Y-104340000D02*
X183140000Y-109400000D01*
X185860000Y-104340000D02*
X183140000Y-104340000D01*
X185860000Y-104340000D02*
X185860000Y-109400000D01*
%TO.C,J3*%
X128140000Y-115690000D02*
X128140000Y-121810000D01*
X128140000Y-118250000D02*
X132500000Y-118250000D01*
X128140000Y-121810000D02*
X135960000Y-121810000D01*
X130400000Y-116450000D02*
X130400000Y-117450000D01*
X130400000Y-116950000D02*
X128140000Y-116950000D01*
X130400000Y-117450000D02*
X128140000Y-117450000D01*
X130400000Y-117450000D02*
X132000000Y-117450000D01*
X130400000Y-120050000D02*
X132000000Y-120050000D01*
X130400000Y-121050000D02*
X130400000Y-120050000D01*
X132000000Y-116450000D02*
X130400000Y-116450000D01*
X132000000Y-117450000D02*
X132000000Y-116450000D01*
X132000000Y-120050000D02*
X132000000Y-121050000D01*
X132000000Y-121050000D02*
X130400000Y-121050000D01*
X132500000Y-118250000D02*
X132500000Y-119250000D01*
X132500000Y-119250000D02*
X128140000Y-119250000D01*
X134360000Y-115690000D02*
X134360000Y-116610000D01*
X134360000Y-116610000D02*
X135960000Y-116610000D01*
X134360000Y-116890000D02*
X134360000Y-116610000D01*
X134360000Y-116890000D02*
X135575000Y-116890000D01*
X134360000Y-120890000D02*
X134360000Y-120610000D01*
X134360000Y-121810000D02*
X134360000Y-120890000D01*
X135960000Y-115690000D02*
X128140000Y-115690000D01*
X135960000Y-116610000D02*
X135960000Y-115690000D01*
X135960000Y-120890000D02*
X134360000Y-120890000D01*
X135960000Y-121810000D02*
X135960000Y-120890000D01*
%TO.C,R4*%
X141470000Y-100022936D02*
X141470000Y-101477064D01*
X143290000Y-100022936D02*
X143290000Y-101477064D01*
%TO.C,TP5*%
X181450000Y-119000000D02*
G75*
G02*
X180050000Y-119000000I-700000J0D01*
G01*
X180050000Y-119000000D02*
G75*
G02*
X181450000Y-119000000I700000J0D01*
G01*
%TO.C,J1*%
X171680000Y-132670000D02*
X171680000Y-135330000D01*
X189520000Y-132670000D02*
X171680000Y-132670000D01*
X189520000Y-132670000D02*
X189520000Y-135330000D01*
X189520000Y-135330000D02*
X171680000Y-135330000D01*
X190790000Y-132670000D02*
X192120000Y-132670000D01*
X192120000Y-132670000D02*
X192120000Y-134000000D01*
%TO.C,C11*%
X168038748Y-120340000D02*
X169461252Y-120340000D01*
X168038748Y-122160000D02*
X169461252Y-122160000D01*
%TO.C,R1*%
X131090000Y-124072936D02*
X131090000Y-125527064D01*
X132910000Y-124072936D02*
X132910000Y-125527064D01*
%TO.C,JP3*%
X155200000Y-114300000D02*
X155200000Y-113700000D01*
X155900000Y-113000000D02*
X157300000Y-113000000D01*
X157300000Y-115000000D02*
X155900000Y-115000000D01*
X158000000Y-113700000D02*
X158000000Y-114300000D01*
X155200000Y-113700000D02*
G75*
G02*
X155900000Y-113000000I700000J0D01*
G01*
X155900000Y-115000000D02*
G75*
G02*
X155200000Y-114300000I0J700000D01*
G01*
X157300000Y-113000000D02*
G75*
G02*
X158000000Y-113700000I1J-699999D01*
G01*
X158000000Y-114300000D02*
G75*
G02*
X157300000Y-115000000I-699999J-1D01*
G01*
%TO.C,R7*%
X150090000Y-111522936D02*
X150090000Y-112977064D01*
X151910000Y-111522936D02*
X151910000Y-112977064D01*
%TO.C,R2*%
X140590000Y-124072936D02*
X140590000Y-125527064D01*
X142410000Y-124072936D02*
X142410000Y-125527064D01*
%TO.C,JP1*%
X146500000Y-100987500D02*
X146500000Y-100387500D01*
X147200000Y-99687500D02*
X148600000Y-99687500D01*
X148600000Y-101687500D02*
X147200000Y-101687500D01*
X149300000Y-100387500D02*
X149300000Y-100987500D01*
X146500000Y-100387500D02*
G75*
G02*
X147200000Y-99687500I700000J0D01*
G01*
X147200000Y-101687500D02*
G75*
G02*
X146500000Y-100987500I0J700000D01*
G01*
X148600000Y-99687500D02*
G75*
G02*
X149300000Y-100387500I1J-699999D01*
G01*
X149300000Y-100987500D02*
G75*
G02*
X148600000Y-101687500I-699999J-1D01*
G01*
%TO.C,D1*%
X128340000Y-112390000D02*
X128340000Y-115110000D01*
X128340000Y-112390000D02*
X133400000Y-112390000D01*
X128340000Y-115110000D02*
X133400000Y-115110000D01*
%TO.C,U2*%
X153750000Y-99440000D02*
X151800000Y-99440000D01*
X153750000Y-99440000D02*
X155700000Y-99440000D01*
X153750000Y-109560000D02*
X151800000Y-109560000D01*
X153750000Y-109560000D02*
X155700000Y-109560000D01*
X151025000Y-99495000D02*
X150785000Y-99165000D01*
X151265000Y-99165000D01*
X151025000Y-99495000D01*
G36*
X151025000Y-99495000D02*
G01*
X150785000Y-99165000D01*
X151265000Y-99165000D01*
X151025000Y-99495000D01*
G37*
%TO.C,U4*%
X135390000Y-132600000D02*
X135390000Y-130100000D01*
X140110000Y-130100000D02*
X140110000Y-132600000D01*
X135540000Y-133120000D02*
X135210000Y-133360000D01*
X135210000Y-132880000D01*
X135540000Y-133120000D01*
G36*
X135540000Y-133120000D02*
G01*
X135210000Y-133360000D01*
X135210000Y-132880000D01*
X135540000Y-133120000D01*
G37*
%TO.C,R9*%
X132572936Y-110090000D02*
X134027064Y-110090000D01*
X132572936Y-111910000D02*
X134027064Y-111910000D01*
%TO.C,TP3*%
X186450000Y-119000000D02*
G75*
G02*
X185050000Y-119000000I-700000J0D01*
G01*
X185050000Y-119000000D02*
G75*
G02*
X186450000Y-119000000I700000J0D01*
G01*
%TO.C,U3*%
X138887500Y-99890000D02*
X138087500Y-99890000D01*
X138887500Y-99890000D02*
X139687500Y-99890000D01*
X138887500Y-103010000D02*
X138087500Y-103010000D01*
X138887500Y-103010000D02*
X139687500Y-103010000D01*
X140427500Y-103290000D02*
X139947500Y-103290000D01*
X140187500Y-102960000D01*
X140427500Y-103290000D01*
G36*
X140427500Y-103290000D02*
G01*
X139947500Y-103290000D01*
X140187500Y-102960000D01*
X140427500Y-103290000D01*
G37*
%TO.C,R6*%
X144090000Y-118227064D02*
X144090000Y-116772936D01*
X145910000Y-118227064D02*
X145910000Y-116772936D01*
%TO.C,R8*%
X147840000Y-113052064D02*
X147840000Y-111597936D01*
X149660000Y-113052064D02*
X149660000Y-111597936D01*
%TO.C,C2*%
X133590000Y-125523752D02*
X133590000Y-124101248D01*
X135410000Y-125523752D02*
X135410000Y-124101248D01*
%TO.C,Q3*%
X183312500Y-100190000D02*
X182662500Y-100190000D01*
X183312500Y-100190000D02*
X183962500Y-100190000D01*
X183312500Y-103310000D02*
X182662500Y-103310000D01*
X183312500Y-103310000D02*
X183962500Y-103310000D01*
X182150000Y-100240000D02*
X181910000Y-99910000D01*
X182390000Y-99910000D01*
X182150000Y-100240000D01*
G36*
X182150000Y-100240000D02*
G01*
X181910000Y-99910000D01*
X182390000Y-99910000D01*
X182150000Y-100240000D01*
G37*
%TO.C,LS1*%
X198850000Y-105550000D02*
G75*
G02*
X186650000Y-105550000I-6100000J0D01*
G01*
X186650000Y-105550000D02*
G75*
G02*
X198850000Y-105550000I6100000J0D01*
G01*
%TO.C,D2*%
X137637500Y-110135000D02*
X141697500Y-110135000D01*
X141697500Y-107865000D02*
X137637500Y-107865000D01*
X141697500Y-110135000D02*
X141697500Y-107865000D01*
%TO.C,J2*%
X143590000Y-125830000D02*
X143590000Y-124500000D01*
X144920000Y-125830000D02*
X143590000Y-125830000D01*
X146190000Y-123170000D02*
X153870000Y-123170000D01*
X146190000Y-125830000D02*
X146190000Y-123170000D01*
X146190000Y-125830000D02*
X153870000Y-125830000D01*
X153870000Y-125830000D02*
X153870000Y-123170000D01*
%TO.C,C9*%
X145340000Y-113023752D02*
X145340000Y-111601248D01*
X147160000Y-113023752D02*
X147160000Y-111601248D01*
%TO.C,J4*%
X125045000Y-99980000D02*
X125045000Y-109170000D01*
X127775000Y-99980000D02*
X125045000Y-99980000D01*
X127775000Y-109170000D02*
X125045000Y-109170000D01*
X131375000Y-99980000D02*
X130475000Y-99980000D01*
X131375000Y-109170000D02*
X130475000Y-109170000D01*
X134455000Y-100100000D02*
X134455000Y-109050000D01*
%TO.C,SW3*%
X162825000Y-127550000D02*
X169125000Y-127550000D01*
X162825000Y-127800000D02*
X162825000Y-127550000D01*
X162825000Y-132300000D02*
X162825000Y-129700000D01*
X162825000Y-134450000D02*
X162825000Y-134200000D01*
X169125000Y-127550000D02*
X169125000Y-127800000D01*
X169125000Y-129700000D02*
X169125000Y-132300000D01*
X169125000Y-134200000D02*
X169125000Y-134450000D01*
X169125000Y-134450000D02*
X162825000Y-134450000D01*
%TO.C,C6*%
X145090000Y-103788748D02*
X145090000Y-105211252D01*
X146910000Y-103788748D02*
X146910000Y-105211252D01*
%TO.C,SW1*%
X142350000Y-127550000D02*
X148650000Y-127550000D01*
X142350000Y-127800000D02*
X142350000Y-127550000D01*
X142350000Y-132300000D02*
X142350000Y-129700000D01*
X142350000Y-134450000D02*
X142350000Y-134200000D01*
X148650000Y-127550000D02*
X148650000Y-127800000D01*
X148650000Y-129700000D02*
X148650000Y-132300000D01*
X148650000Y-134200000D02*
X148650000Y-134450000D01*
X148650000Y-134450000D02*
X142350000Y-134450000D01*
%TO.C,SW2*%
X152600000Y-127550000D02*
X158900000Y-127550000D01*
X152600000Y-127800000D02*
X152600000Y-127550000D01*
X152600000Y-132300000D02*
X152600000Y-129700000D01*
X152600000Y-134450000D02*
X152600000Y-134200000D01*
X158900000Y-127550000D02*
X158900000Y-127800000D01*
X158900000Y-129700000D02*
X158900000Y-132300000D01*
X158900000Y-134200000D02*
X158900000Y-134450000D01*
X158900000Y-134450000D02*
X152600000Y-134450000D01*
%TO.C,TP1*%
X191450000Y-119000000D02*
G75*
G02*
X190050000Y-119000000I-700000J0D01*
G01*
X190050000Y-119000000D02*
G75*
G02*
X191450000Y-119000000I700000J0D01*
G01*
%TO.C,R11*%
X179090000Y-102777064D02*
X179090000Y-101322936D01*
X180910000Y-102777064D02*
X180910000Y-101322936D01*
%TO.C,R10*%
X138572936Y-103590000D02*
X140027064Y-103590000D01*
X138572936Y-105410000D02*
X140027064Y-105410000D01*
%TO.C,TP6*%
X128550000Y-110550000D02*
X129950000Y-110550000D01*
X128550000Y-111950000D02*
X128550000Y-110550000D01*
X129950000Y-110550000D02*
X129950000Y-111950000D01*
X129950000Y-111950000D02*
X128550000Y-111950000D01*
%TO.C,C4*%
X152590000Y-112961252D02*
X152590000Y-111538748D01*
X154410000Y-112961252D02*
X154410000Y-111538748D01*
%TO.C,R3*%
X142090000Y-106527064D02*
X142090000Y-105072936D01*
X143910000Y-106527064D02*
X143910000Y-105072936D01*
%TO.C,R5*%
X146340000Y-118227064D02*
X146340000Y-116772936D01*
X148160000Y-118227064D02*
X148160000Y-116772936D01*
%TO.C,Q1*%
X136240000Y-124687500D02*
X136240000Y-124037500D01*
X136240000Y-124687500D02*
X136240000Y-125337500D01*
X139360000Y-124687500D02*
X139360000Y-124037500D01*
X139360000Y-124687500D02*
X139360000Y-125337500D01*
X139640000Y-123765000D02*
X139310000Y-123525000D01*
X139640000Y-123285000D01*
X139640000Y-123765000D01*
G36*
X139640000Y-123765000D02*
G01*
X139310000Y-123525000D01*
X139640000Y-123285000D01*
X139640000Y-123765000D01*
G37*
%TO.C,C10*%
X169461252Y-122840000D02*
X168038748Y-122840000D01*
X169461252Y-124660000D02*
X168038748Y-124660000D01*
%TO.C,U1*%
X159185000Y-93100000D02*
X159185000Y-99300000D01*
X159185000Y-93100000D02*
X177585000Y-93100000D01*
X159185000Y-117950000D02*
X159185000Y-118950000D01*
X159185000Y-118950000D02*
X160685000Y-118950000D01*
X177585000Y-93100000D02*
X177585000Y-99300000D01*
X177585000Y-118950000D02*
X176085000Y-118950000D01*
X177585000Y-118950000D02*
X177585000Y-117950000D01*
X159185000Y-99975000D02*
X158685000Y-99975000D01*
X159185000Y-99475000D01*
X159185000Y-99975000D01*
G36*
X159185000Y-99975000D02*
G01*
X158685000Y-99975000D01*
X159185000Y-99475000D01*
X159185000Y-99975000D01*
G37*
%TO.C,JP4*%
X136750000Y-119850000D02*
X136750000Y-118450000D01*
X137450000Y-117750000D02*
X138050000Y-117750000D01*
X138050000Y-120550000D02*
X137450000Y-120550000D01*
X138750000Y-118450000D02*
X138750000Y-119850000D01*
X136750000Y-118450000D02*
G75*
G02*
X137450000Y-117750000I700000J0D01*
G01*
X137450000Y-120550000D02*
G75*
G02*
X136750000Y-119850000I-1J699999D01*
G01*
X138050000Y-117750000D02*
G75*
G02*
X138750000Y-118450000I0J-700000D01*
G01*
X138750000Y-119850000D02*
G75*
G02*
X138050000Y-120550000I-699999J-1D01*
G01*
%TO.C,R12*%
X171840000Y-121322936D02*
X171840000Y-122777064D01*
X173660000Y-121322936D02*
X173660000Y-122777064D01*
%TO.C,JP2*%
X155200000Y-111800000D02*
X155200000Y-111200000D01*
X155900000Y-110500000D02*
X157300000Y-110500000D01*
X157300000Y-112500000D02*
X155900000Y-112500000D01*
X158000000Y-111200000D02*
X158000000Y-111800000D01*
X155200000Y-111200000D02*
G75*
G02*
X155900000Y-110500000I699999J1D01*
G01*
X155900000Y-112500000D02*
G75*
G02*
X155200000Y-111800000I-1J699999D01*
G01*
X157300000Y-110500000D02*
G75*
G02*
X158000000Y-111200000I0J-700000D01*
G01*
X158000000Y-111800000D02*
G75*
G02*
X157300000Y-112500000I-700000J0D01*
G01*
%TO.C,R13*%
X174340000Y-122777064D02*
X174340000Y-121322936D01*
X176160000Y-122777064D02*
X176160000Y-121322936D01*
%TO.C,C1*%
X128590000Y-124101248D02*
X128590000Y-125523752D01*
X130410000Y-124101248D02*
X130410000Y-125523752D01*
%TO.C,C7*%
X148840000Y-116788748D02*
X148840000Y-118211252D01*
X150660000Y-116788748D02*
X150660000Y-118211252D01*
%TO.C,C8*%
X142840000Y-111601248D02*
X142840000Y-113023752D01*
X144660000Y-111601248D02*
X144660000Y-113023752D01*
%TO.C,C5*%
X147590000Y-103788748D02*
X147590000Y-105211252D01*
X149410000Y-103788748D02*
X149410000Y-105211252D01*
%TO.C,TP2*%
X188950000Y-119000000D02*
G75*
G02*
X187550000Y-119000000I-700000J0D01*
G01*
X187550000Y-119000000D02*
G75*
G02*
X188950000Y-119000000I700000J0D01*
G01*
%TO.C,TP4*%
X183950000Y-119000000D02*
G75*
G02*
X182550000Y-119000000I-700000J0D01*
G01*
X182550000Y-119000000D02*
G75*
G02*
X183950000Y-119000000I700000J0D01*
G01*
%TO.C,C3*%
X146538748Y-107527500D02*
X147961252Y-107527500D01*
X146538748Y-109347500D02*
X147961252Y-109347500D01*
%TD*%
%LPC*%
D12*
%TO.C,Q2*%
X153750000Y-115750000D03*
X151850000Y-115750000D03*
X152800000Y-118025000D03*
%TD*%
D13*
%TO.C,D4*%
X184500000Y-105300000D03*
X184500000Y-109700000D03*
%TD*%
D14*
%TO.C,J3*%
X134500000Y-117750000D03*
D15*
X134500000Y-119750000D03*
%TD*%
D16*
%TO.C,R4*%
X142380000Y-99200000D03*
X142380000Y-102300000D03*
%TD*%
D17*
%TO.C,TP5*%
X180750000Y-119000000D03*
%TD*%
D18*
%TO.C,J1*%
X190790000Y-134000000D03*
D19*
X188250000Y-134000000D03*
X185710000Y-134000000D03*
X183170000Y-134000000D03*
X180630000Y-134000000D03*
X178090000Y-134000000D03*
X175550000Y-134000000D03*
X173010000Y-134000000D03*
%TD*%
D20*
%TO.C,C11*%
X167187500Y-121250000D03*
X170312500Y-121250000D03*
%TD*%
D16*
%TO.C,R1*%
X132000000Y-123250000D03*
X132000000Y-126350000D03*
%TD*%
D21*
%TO.C,JP3*%
X157250000Y-114000000D03*
D22*
X155950000Y-114000000D03*
%TD*%
D16*
%TO.C,R7*%
X151000000Y-110700000D03*
X151000000Y-113800000D03*
%TD*%
%TO.C,R2*%
X141500000Y-123250000D03*
X141500000Y-126350000D03*
%TD*%
D21*
%TO.C,JP1*%
X148550000Y-100687500D03*
D22*
X147250000Y-100687500D03*
%TD*%
D23*
%TO.C,D1*%
X129300000Y-113750000D03*
X133700000Y-113750000D03*
%TD*%
D24*
%TO.C,U2*%
X151250000Y-100055000D03*
X151250000Y-101325000D03*
X151250000Y-102595000D03*
X151250000Y-103865000D03*
X151250000Y-105135000D03*
X151250000Y-106405000D03*
X151250000Y-107675000D03*
X151250000Y-108945000D03*
X156250000Y-108945000D03*
X156250000Y-107675000D03*
X156250000Y-106405000D03*
X156250000Y-105135000D03*
X156250000Y-103865000D03*
X156250000Y-102595000D03*
X156250000Y-101325000D03*
X156250000Y-100055000D03*
%TD*%
D25*
%TO.C,U4*%
X136250000Y-133700000D03*
D26*
X137750000Y-131350000D03*
D25*
X139250000Y-133700000D03*
X139250000Y-129000000D03*
X136250000Y-129000000D03*
%TD*%
D27*
%TO.C,R9*%
X131750000Y-111000000D03*
X134850000Y-111000000D03*
%TD*%
D28*
%TO.C,H3*%
X195500000Y-96500000D03*
D29*
X195500000Y-96500000D03*
%TD*%
D17*
%TO.C,TP3*%
X185750000Y-119000000D03*
%TD*%
D30*
%TO.C,U3*%
X140025000Y-102400000D03*
X140025000Y-101450000D03*
X140025000Y-100500000D03*
X137750000Y-100500000D03*
X137750000Y-102400000D03*
%TD*%
D31*
%TO.C,R6*%
X145000000Y-119050000D03*
X145000000Y-115950000D03*
%TD*%
%TO.C,R8*%
X148750000Y-113875000D03*
X148750000Y-110775000D03*
%TD*%
D32*
%TO.C,C2*%
X134500000Y-126375000D03*
X134500000Y-123250000D03*
%TD*%
D33*
%TO.C,Q3*%
X182375000Y-100800000D03*
X182375000Y-102700000D03*
X184250000Y-101750000D03*
%TD*%
D34*
%TO.C,LS1*%
X192750000Y-109350000D03*
D35*
X192750000Y-101750000D03*
%TD*%
D36*
%TO.C,D2*%
X140725000Y-109000000D03*
X137750000Y-109000000D03*
%TD*%
D18*
%TO.C,J2*%
X144920000Y-124500000D03*
D19*
X147460000Y-124500000D03*
X150000000Y-124500000D03*
X152540000Y-124500000D03*
%TD*%
D32*
%TO.C,C9*%
X146250000Y-113875000D03*
X146250000Y-110750000D03*
%TD*%
D37*
%TO.C,J4*%
X133775000Y-101600000D03*
X133775000Y-102450000D03*
X133775000Y-103300000D03*
X133775000Y-104150000D03*
X133775000Y-105000000D03*
X133775000Y-105850000D03*
X133775000Y-106700000D03*
X133775000Y-107550000D03*
X132425000Y-107550000D03*
X132425000Y-106700000D03*
X132425000Y-105850000D03*
X132425000Y-105000000D03*
X132425000Y-104150000D03*
X132425000Y-103300000D03*
X132425000Y-102450000D03*
X132425000Y-101600000D03*
D38*
X132795000Y-100250000D03*
D39*
X129415000Y-100250000D03*
D38*
X132795000Y-108900000D03*
D39*
X129415000Y-108900000D03*
%TD*%
D40*
%TO.C,SW3*%
X162000000Y-128750000D03*
X169950000Y-128750000D03*
X162000000Y-133250000D03*
X169950000Y-133250000D03*
%TD*%
D41*
%TO.C,C6*%
X146000000Y-102937500D03*
X146000000Y-106062500D03*
%TD*%
D40*
%TO.C,SW1*%
X141525000Y-128750000D03*
X149475000Y-128750000D03*
X141525000Y-133250000D03*
X149475000Y-133250000D03*
%TD*%
%TO.C,SW2*%
X151775000Y-128750000D03*
X159725000Y-128750000D03*
X151775000Y-133250000D03*
X159725000Y-133250000D03*
%TD*%
D17*
%TO.C,TP1*%
X190750000Y-119000000D03*
%TD*%
D31*
%TO.C,R11*%
X180000000Y-103600000D03*
X180000000Y-100500000D03*
%TD*%
D27*
%TO.C,R10*%
X137750000Y-104500000D03*
X140850000Y-104500000D03*
%TD*%
D42*
%TO.C,TP6*%
X129250000Y-111250000D03*
%TD*%
D32*
%TO.C,C4*%
X153500000Y-113812500D03*
X153500000Y-110687500D03*
%TD*%
D31*
%TO.C,R3*%
X143000000Y-107350000D03*
X143000000Y-104250000D03*
%TD*%
%TO.C,R5*%
X147250000Y-119050000D03*
X147250000Y-115950000D03*
%TD*%
D43*
%TO.C,Q1*%
X138750000Y-123750000D03*
X136850000Y-123750000D03*
X137800000Y-125625000D03*
%TD*%
D44*
%TO.C,C10*%
X170312500Y-123750000D03*
X167187500Y-123750000D03*
%TD*%
D45*
%TO.C,U1*%
X159635000Y-100740000D03*
X159635000Y-102010000D03*
X159635000Y-103280000D03*
X159635000Y-104550000D03*
X159635000Y-105820000D03*
X159635000Y-107090000D03*
X159635000Y-108360000D03*
X159635000Y-109630000D03*
X159635000Y-110900000D03*
X159635000Y-112170000D03*
X159635000Y-113440000D03*
X159635000Y-114710000D03*
X159635000Y-115980000D03*
X159635000Y-117250000D03*
D46*
X161400000Y-118500000D03*
X162670000Y-118500000D03*
X163940000Y-118500000D03*
X165210000Y-118500000D03*
X166480000Y-118500000D03*
X167750000Y-118500000D03*
X169020000Y-118500000D03*
X170290000Y-118500000D03*
X171560000Y-118500000D03*
X172830000Y-118500000D03*
X174100000Y-118500000D03*
X175370000Y-118500000D03*
D45*
X177135000Y-117250000D03*
X177135000Y-115980000D03*
X177135000Y-114710000D03*
X177135000Y-113440000D03*
X177135000Y-112170000D03*
X177135000Y-110900000D03*
X177135000Y-109630000D03*
X177135000Y-108360000D03*
X177135000Y-107090000D03*
X177135000Y-105820000D03*
X177135000Y-104550000D03*
X177135000Y-103280000D03*
X177135000Y-102010000D03*
X177135000Y-100740000D03*
D47*
X165485000Y-107760000D03*
X165485000Y-109160000D03*
X166185000Y-107060000D03*
X166185000Y-108460000D03*
X166185000Y-109860000D03*
X166885000Y-107760000D03*
D48*
X166885000Y-108460000D03*
D47*
X166885000Y-109160000D03*
X167585000Y-107060000D03*
X167585000Y-108460000D03*
X167585000Y-109860000D03*
X168285000Y-107760000D03*
X168285000Y-109160000D03*
%TD*%
D49*
%TO.C,JP4*%
X137750000Y-119800000D03*
D50*
X137750000Y-118500000D03*
%TD*%
D16*
%TO.C,R12*%
X172750000Y-120500000D03*
X172750000Y-123600000D03*
%TD*%
D51*
%TO.C,JP2*%
X155950000Y-111500000D03*
D52*
X157250000Y-111500000D03*
%TD*%
D31*
%TO.C,R13*%
X175250000Y-123600000D03*
X175250000Y-120500000D03*
%TD*%
D41*
%TO.C,C1*%
X129500000Y-123250000D03*
X129500000Y-126375000D03*
%TD*%
D28*
%TO.C,H4*%
X195500000Y-132000000D03*
D29*
X195500000Y-132000000D03*
%TD*%
D41*
%TO.C,C7*%
X149750000Y-115937500D03*
X149750000Y-119062500D03*
%TD*%
D28*
%TO.C,H2*%
X131500000Y-132000000D03*
D29*
X131500000Y-132000000D03*
%TD*%
D41*
%TO.C,C8*%
X143750000Y-110750000D03*
X143750000Y-113875000D03*
%TD*%
%TO.C,C5*%
X148500000Y-102937500D03*
X148500000Y-106062500D03*
%TD*%
D17*
%TO.C,TP2*%
X188250000Y-119000000D03*
%TD*%
%TO.C,TP4*%
X183250000Y-119000000D03*
%TD*%
D28*
%TO.C,H1*%
X133000000Y-96250000D03*
D29*
X133000000Y-96250000D03*
%TD*%
D20*
%TO.C,C3*%
X145687500Y-108437500D03*
X148812500Y-108437500D03*
%TD*%
%LPD*%
M02*
