%TF.GenerationSoftware,KiCad,Pcbnew,8.0.5*%
%TF.CreationDate,2024-12-20T12:43:02-05:00*%
%TF.ProjectId,coffee-scale,636f6666-6565-42d7-9363-616c652e6b69,rev?*%
%TF.SameCoordinates,Original*%
%TF.FileFunction,Copper,L2,Bot*%
%TF.FilePolarity,Positive*%
%FSLAX46Y46*%
G04 Gerber Fmt 4.6, Leading zero omitted, Abs format (unit mm)*
G04 Created by KiCad (PCBNEW 8.0.5) date 2024-12-20 12:43:02*
%MOMM*%
%LPD*%
G01*
G04 APERTURE LIST*
G04 Aperture macros list*
%AMRoundRect*
0 Rectangle with rounded corners*
0 $1 Rounding radius*
0 $2 $3 $4 $5 $6 $7 $8 $9 X,Y pos of 4 corners*
0 Add a 4 corners polygon primitive as box body*
4,1,4,$2,$3,$4,$5,$6,$7,$8,$9,$2,$3,0*
0 Add four circle primitives for the rounded corners*
1,1,$1+$1,$2,$3*
1,1,$1+$1,$4,$5*
1,1,$1+$1,$6,$7*
1,1,$1+$1,$8,$9*
0 Add four rect primitives between the rounded corners*
20,1,$1+$1,$2,$3,$4,$5,0*
20,1,$1+$1,$4,$5,$6,$7,0*
20,1,$1+$1,$6,$7,$8,$9,0*
20,1,$1+$1,$8,$9,$2,$3,0*%
G04 Aperture macros list end*
%TA.AperFunction,ComponentPad*%
%ADD10RoundRect,0.250000X-0.625000X0.350000X-0.625000X-0.350000X0.625000X-0.350000X0.625000X0.350000X0*%
%TD*%
%TA.AperFunction,ComponentPad*%
%ADD11O,1.750000X1.200000*%
%TD*%
%TA.AperFunction,ComponentPad*%
%ADD12R,1.700000X1.700000*%
%TD*%
%TA.AperFunction,ComponentPad*%
%ADD13O,1.700000X1.700000*%
%TD*%
%TA.AperFunction,ComponentPad*%
%ADD14C,2.900000*%
%TD*%
%TA.AperFunction,ConnectorPad*%
%ADD15C,5.000000*%
%TD*%
%TA.AperFunction,ComponentPad*%
%ADD16R,2.000000X2.000000*%
%TD*%
%TA.AperFunction,ComponentPad*%
%ADD17C,2.000000*%
%TD*%
%TA.AperFunction,ComponentPad*%
%ADD18C,0.700000*%
%TD*%
%TA.AperFunction,ComponentPad*%
%ADD19O,2.400000X0.900000*%
%TD*%
%TA.AperFunction,ComponentPad*%
%ADD20O,1.700000X0.900000*%
%TD*%
%TA.AperFunction,HeatsinkPad*%
%ADD21C,0.600000*%
%TD*%
%TA.AperFunction,ViaPad*%
%ADD22C,0.600000*%
%TD*%
%TA.AperFunction,Conductor*%
%ADD23C,0.200000*%
%TD*%
G04 APERTURE END LIST*
D10*
%TO.P,J3,1,Pin_1*%
%TO.N,GND*%
X134500000Y-117750000D03*
D11*
%TO.P,J3,2,Pin_2*%
%TO.N,Net-(J3-Pin_2)*%
X134500000Y-119750000D03*
%TD*%
D12*
%TO.P,J1,1,Pin_1*%
%TO.N,/CS*%
X190790000Y-134000000D03*
D13*
%TO.P,J1,2,Pin_2*%
%TO.N,/RST*%
X188250000Y-134000000D03*
%TO.P,J1,3,Pin_3*%
%TO.N,/D{slash}C*%
X185710000Y-134000000D03*
%TO.P,J1,4,Pin_4*%
%TO.N,/CLK*%
X183170000Y-134000000D03*
%TO.P,J1,5,Pin_5*%
%TO.N,/DATA*%
X180630000Y-134000000D03*
%TO.P,J1,6,Pin_6*%
%TO.N,3.3V*%
X178090000Y-134000000D03*
%TO.P,J1,7,Pin_7*%
%TO.N,unconnected-(J1-Pin_7-Pad7)*%
X175550000Y-134000000D03*
%TO.P,J1,8,Pin_8*%
%TO.N,GND*%
X173010000Y-134000000D03*
%TD*%
D14*
%TO.P,H3,1*%
%TO.N,N/C*%
X195500000Y-96500000D03*
D15*
X195500000Y-96500000D03*
%TD*%
D16*
%TO.P,LS1,1,1*%
%TO.N,3.3V*%
X192750000Y-109350000D03*
D17*
%TO.P,LS1,2,2*%
%TO.N,Net-(D4-A)*%
X192750000Y-101750000D03*
%TD*%
D12*
%TO.P,J2,1,Pin_1*%
%TO.N,/E+*%
X144920000Y-124500000D03*
D13*
%TO.P,J2,2,Pin_2*%
%TO.N,GND*%
X147460000Y-124500000D03*
%TO.P,J2,3,Pin_3*%
%TO.N,/S-*%
X150000000Y-124500000D03*
%TO.P,J2,4,Pin_4*%
%TO.N,/S+*%
X152540000Y-124500000D03*
%TD*%
D18*
%TO.P,J4,A1,GND*%
%TO.N,GND*%
X133775000Y-101600000D03*
%TO.P,J4,A4,VBUS*%
%TO.N,VBUS*%
X133775000Y-102450000D03*
%TO.P,J4,A5,CC1*%
%TO.N,Net-(J4-CC1)*%
X133775000Y-103300000D03*
%TO.P,J4,A6,D+*%
%TO.N,/D+*%
X133775000Y-104150000D03*
%TO.P,J4,A7,D-*%
%TO.N,/D-*%
X133775000Y-105000000D03*
%TO.P,J4,A8*%
%TO.N,N/C*%
X133775000Y-105850000D03*
%TO.P,J4,A9,VBUS*%
%TO.N,VBUS*%
X133775000Y-106700000D03*
%TO.P,J4,A12,GND*%
%TO.N,GND*%
X133775000Y-107550000D03*
%TO.P,J4,B1,GND*%
X132425000Y-107550000D03*
%TO.P,J4,B4,VBUS*%
%TO.N,VBUS*%
X132425000Y-106700000D03*
%TO.P,J4,B5,CC2*%
%TO.N,Net-(J4-CC2)*%
X132425000Y-105850000D03*
%TO.P,J4,B6,D+*%
%TO.N,/D+*%
X132425000Y-105000000D03*
%TO.P,J4,B7,D-*%
%TO.N,/D-*%
X132425000Y-104150000D03*
%TO.P,J4,B8*%
%TO.N,N/C*%
X132425000Y-103300000D03*
%TO.P,J4,B9,VBUS*%
%TO.N,VBUS*%
X132425000Y-102450000D03*
%TO.P,J4,B12,GND*%
%TO.N,GND*%
X132425000Y-101600000D03*
D19*
%TO.P,J4,S1,SHIELD*%
X132795000Y-100250000D03*
D20*
X129415000Y-100250000D03*
D19*
X132795000Y-108900000D03*
D20*
X129415000Y-108900000D03*
%TD*%
D21*
%TO.P,U1,41,GPIO36*%
%TO.N,/D{slash}C*%
X165485000Y-107760000D03*
X165485000Y-109160000D03*
X166185000Y-107060000D03*
X166185000Y-108460000D03*
X166185000Y-109860000D03*
X166885000Y-107760000D03*
X166885000Y-109160000D03*
X167585000Y-107060000D03*
X167585000Y-108460000D03*
X167585000Y-109860000D03*
X168285000Y-107760000D03*
X168285000Y-109160000D03*
%TD*%
D14*
%TO.P,H4,1*%
%TO.N,N/C*%
X195500000Y-132000000D03*
D15*
X195500000Y-132000000D03*
%TD*%
D14*
%TO.P,H2,1*%
%TO.N,N/C*%
X131500000Y-132000000D03*
D15*
X131500000Y-132000000D03*
%TD*%
D14*
%TO.P,H1,1*%
%TO.N,N/C*%
X133000000Y-96250000D03*
D15*
X133000000Y-96250000D03*
%TD*%
D22*
%TO.N,GND*%
X139250000Y-131750000D03*
X148500000Y-105000000D03*
X149500000Y-134500000D03*
X162000000Y-134500000D03*
X142380000Y-101220000D03*
X148750000Y-112750000D03*
X146250000Y-112750000D03*
X139750000Y-106750000D03*
X182375000Y-103375000D03*
X170000000Y-134500000D03*
X143750000Y-112750000D03*
X135000000Y-101750000D03*
X130500000Y-111250000D03*
X141000000Y-101450000D03*
X156250000Y-109750000D03*
X154845000Y-102595000D03*
X169250000Y-121250000D03*
X159750000Y-134500000D03*
X152575000Y-105175000D03*
X141500000Y-134500000D03*
X146000000Y-105000000D03*
X131475000Y-107725000D03*
X129500000Y-125250000D03*
X151750000Y-134500000D03*
X131000000Y-101750000D03*
X134500000Y-124250000D03*
X147750000Y-108500000D03*
X153500000Y-111750000D03*
X169250000Y-123750000D03*
X141500000Y-125250000D03*
%TO.N,3.3V*%
X136250000Y-127250000D03*
X146750000Y-121250000D03*
X158384998Y-111580000D03*
X136250000Y-130750000D03*
X158404237Y-114050000D03*
X192750000Y-128250000D03*
%TO.N,VBAT*%
X140000000Y-114250000D03*
X137750000Y-116500000D03*
%TO.N,Net-(U2-INA-)*%
X152750000Y-107675000D03*
X149750000Y-117250000D03*
%TO.N,Net-(U2-INA+)*%
X152700735Y-108700735D03*
X151334358Y-117556239D03*
%TO.N,/E+*%
X151875000Y-118875000D03*
X154750000Y-123500000D03*
%TO.N,VBUS*%
X136250000Y-114250000D03*
X137750000Y-111750000D03*
%TO.N,/RST*%
X188250000Y-115300000D03*
X188250000Y-116500000D03*
%TO.N,/D{slash}C*%
X175284998Y-109160000D03*
X178500000Y-109160000D03*
%TO.N,/S+*%
X145250000Y-120000000D03*
%TO.N,/S-*%
X147750000Y-120650000D03*
%TO.N,Net-(JP3-B)*%
X154750000Y-106500000D03*
X154750000Y-112500000D03*
%TO.N,Net-(Q2-B)*%
X161000000Y-100758981D03*
X157784998Y-100758981D03*
X161000000Y-116750000D03*
X152875000Y-116125000D03*
%TO.N,/BUT1*%
X161250000Y-121500000D03*
X161250000Y-123325000D03*
%TO.N,/BUT2*%
X162500000Y-123325000D03*
X162500000Y-121500000D03*
%TO.N,/BUT3*%
X164000000Y-121500000D03*
X164000000Y-123325000D03*
%TD*%
D23*
%TO.N,3.3V*%
X178090000Y-134000000D02*
X178090000Y-129455000D01*
X142250000Y-121250000D02*
X136250000Y-127250000D01*
X146750000Y-121250000D02*
X142250000Y-121250000D01*
X179295000Y-128250000D02*
X192750000Y-128250000D01*
X136250000Y-130750000D02*
X174840000Y-130750000D01*
X174840000Y-130750000D02*
X178090000Y-134000000D01*
X158404237Y-114050000D02*
X158404237Y-111599239D01*
X178090000Y-129455000D02*
X179295000Y-128250000D01*
X158404237Y-111599239D02*
X158384998Y-111580000D01*
%TO.N,VBAT*%
X140000000Y-114250000D02*
X137750000Y-116500000D01*
%TO.N,Net-(U2-INA-)*%
X151000000Y-109425000D02*
X151000000Y-116000000D01*
X152750000Y-107675000D02*
X151000000Y-109425000D01*
X151000000Y-116000000D02*
X149750000Y-117250000D01*
%TO.N,Net-(U2-INA+)*%
X151334358Y-117556239D02*
X151400000Y-117490597D01*
X151400000Y-110001470D02*
X152700735Y-108700735D01*
X151400000Y-117490597D02*
X151400000Y-110001470D01*
%TO.N,/E+*%
X154750000Y-121750000D02*
X154750000Y-123500000D01*
X151875000Y-118875000D02*
X154750000Y-121750000D01*
%TO.N,VBUS*%
X133775000Y-102450000D02*
X132425000Y-102450000D01*
X137750000Y-112750000D02*
X137750000Y-111750000D01*
X131775000Y-102605026D02*
X131930026Y-102450000D01*
X136250000Y-114250000D02*
X137750000Y-112750000D01*
X131775000Y-106544974D02*
X131775000Y-102605026D01*
X131930026Y-106700000D02*
X131775000Y-106544974D01*
X131930026Y-102450000D02*
X132425000Y-102450000D01*
X132425000Y-106700000D02*
X131930026Y-106700000D01*
%TO.N,/RST*%
X188250000Y-115300000D02*
X188250000Y-116500000D01*
%TO.N,/D{slash}C*%
X178500000Y-109160000D02*
X175284998Y-109160000D01*
%TO.N,/S+*%
X145250000Y-120000000D02*
X150000000Y-120000000D01*
X152540000Y-122540000D02*
X152540000Y-125000000D01*
X150000000Y-120000000D02*
X152540000Y-122540000D01*
%TO.N,/S-*%
X150000000Y-122900000D02*
X150000000Y-125000000D01*
X147750000Y-120650000D02*
X150000000Y-122900000D01*
%TO.N,/D+*%
X132494239Y-105000000D02*
X132425000Y-105000000D01*
X133344239Y-104150000D02*
X132494239Y-105000000D01*
X133775000Y-104150000D02*
X133344239Y-104150000D01*
%TO.N,/D-*%
X132494239Y-104325000D02*
X132425000Y-104325000D01*
%TO.N,Net-(JP3-B)*%
X154750000Y-112500000D02*
X154750000Y-106500000D01*
%TO.N,Net-(Q2-B)*%
X152875000Y-116125000D02*
X153500000Y-116750000D01*
X153500000Y-116750000D02*
X161000000Y-116750000D01*
X161000000Y-100758981D02*
X157784998Y-100758981D01*
%TO.N,/BUT1*%
X161250000Y-123325000D02*
X161250000Y-121500000D01*
%TO.N,/BUT2*%
X162500000Y-123325000D02*
X162500000Y-121500000D01*
%TO.N,/BUT3*%
X164000000Y-123325000D02*
X164000000Y-121500000D01*
%TD*%
%TA.AperFunction,Conductor*%
%TO.N,GND*%
G36*
X144193039Y-93020185D02*
G01*
X144238794Y-93072989D01*
X144250000Y-93124500D01*
X144250000Y-99500000D01*
X192750000Y-99500000D01*
X192750000Y-98200635D01*
X192769685Y-98133596D01*
X192822489Y-98087841D01*
X192891647Y-98077897D01*
X192955203Y-98106922D01*
X192981388Y-98138636D01*
X192988872Y-98151600D01*
X193197584Y-98431949D01*
X193197589Y-98431955D01*
X193321463Y-98563253D01*
X193437442Y-98686183D01*
X193613903Y-98834251D01*
X193705186Y-98910847D01*
X193705194Y-98910853D01*
X193997203Y-99102911D01*
X193997207Y-99102913D01*
X194309549Y-99259777D01*
X194637989Y-99379319D01*
X194978086Y-99459923D01*
X195325241Y-99500500D01*
X195325248Y-99500500D01*
X195674752Y-99500500D01*
X195674759Y-99500500D01*
X196021914Y-99459923D01*
X196362011Y-99379319D01*
X196690451Y-99259777D01*
X197002793Y-99102913D01*
X197294811Y-98910849D01*
X197562558Y-98686183D01*
X197802412Y-98431953D01*
X198011130Y-98151596D01*
X198185889Y-97848904D01*
X198324326Y-97527971D01*
X198424569Y-97193136D01*
X198485262Y-96848927D01*
X198501710Y-96566532D01*
X198525259Y-96500750D01*
X198529732Y-96497307D01*
X198506523Y-96461192D01*
X198501710Y-96433467D01*
X198491024Y-96250003D01*
X198485262Y-96151073D01*
X198485260Y-96151061D01*
X198424571Y-95806872D01*
X198424569Y-95806865D01*
X198324325Y-95472027D01*
X198185889Y-95151096D01*
X198041549Y-94901091D01*
X198011129Y-94848402D01*
X197802415Y-94568050D01*
X197802410Y-94568044D01*
X197686433Y-94445117D01*
X197562558Y-94313817D01*
X197414488Y-94189572D01*
X197294813Y-94089152D01*
X197294805Y-94089146D01*
X197002796Y-93897088D01*
X196690458Y-93740226D01*
X196690452Y-93740223D01*
X196362012Y-93620681D01*
X196362009Y-93620680D01*
X196021915Y-93540077D01*
X195978519Y-93535004D01*
X195674759Y-93499500D01*
X195325241Y-93499500D01*
X195021480Y-93535004D01*
X194978085Y-93540077D01*
X194978083Y-93540077D01*
X194637990Y-93620680D01*
X194637987Y-93620681D01*
X194309547Y-93740223D01*
X194309541Y-93740226D01*
X193997203Y-93897088D01*
X193705194Y-94089146D01*
X193705186Y-94089152D01*
X193437442Y-94313817D01*
X193437440Y-94313819D01*
X193197589Y-94568044D01*
X193197584Y-94568050D01*
X192988871Y-94848401D01*
X192981386Y-94861366D01*
X192930818Y-94909580D01*
X192862211Y-94922802D01*
X192797347Y-94896833D01*
X192756819Y-94839919D01*
X192750000Y-94799364D01*
X192750000Y-93124500D01*
X192769685Y-93057461D01*
X192822489Y-93011706D01*
X192874000Y-93000500D01*
X198625500Y-93000500D01*
X198692539Y-93020185D01*
X198738294Y-93072989D01*
X198749500Y-93124500D01*
X198749500Y-96426257D01*
X198729815Y-96493296D01*
X198721027Y-96500910D01*
X198746307Y-96545784D01*
X198749500Y-96573742D01*
X198749500Y-131926257D01*
X198729815Y-131993296D01*
X198721027Y-132000910D01*
X198746307Y-132045784D01*
X198749500Y-132073742D01*
X198749500Y-135125500D01*
X198729815Y-135192539D01*
X198677011Y-135238294D01*
X198625500Y-135249500D01*
X192203769Y-135249500D01*
X192136730Y-135229815D01*
X192090975Y-135177011D01*
X192081031Y-135107853D01*
X192087587Y-135082167D01*
X192095547Y-135060822D01*
X192134091Y-134957483D01*
X192140500Y-134897873D01*
X192140499Y-133102128D01*
X192134091Y-133042517D01*
X192132810Y-133039083D01*
X192083797Y-132907671D01*
X192083793Y-132907664D01*
X191997547Y-132792455D01*
X191997544Y-132792452D01*
X191882335Y-132706206D01*
X191882328Y-132706202D01*
X191747482Y-132655908D01*
X191747483Y-132655908D01*
X191687883Y-132649501D01*
X191687881Y-132649500D01*
X191687873Y-132649500D01*
X191687864Y-132649500D01*
X189892129Y-132649500D01*
X189892123Y-132649501D01*
X189832516Y-132655908D01*
X189697671Y-132706202D01*
X189697664Y-132706206D01*
X189582455Y-132792452D01*
X189582452Y-132792455D01*
X189496206Y-132907664D01*
X189496203Y-132907669D01*
X189447189Y-133039083D01*
X189405317Y-133095016D01*
X189339853Y-133119433D01*
X189271580Y-133104581D01*
X189243326Y-133083430D01*
X189121402Y-132961506D01*
X189121395Y-132961501D01*
X188927834Y-132825967D01*
X188927830Y-132825965D01*
X188922089Y-132823288D01*
X188713663Y-132726097D01*
X188713659Y-132726096D01*
X188713655Y-132726094D01*
X188485413Y-132664938D01*
X188485403Y-132664936D01*
X188250001Y-132644341D01*
X188249999Y-132644341D01*
X188014596Y-132664936D01*
X188014586Y-132664938D01*
X187786344Y-132726094D01*
X187786335Y-132726098D01*
X187572171Y-132825964D01*
X187572169Y-132825965D01*
X187378597Y-132961505D01*
X187211505Y-133128597D01*
X187081575Y-133314158D01*
X187026998Y-133357783D01*
X186957500Y-133364977D01*
X186895145Y-133333454D01*
X186878425Y-133314158D01*
X186748494Y-133128597D01*
X186581402Y-132961506D01*
X186581395Y-132961501D01*
X186387834Y-132825967D01*
X186387830Y-132825965D01*
X186382089Y-132823288D01*
X186173663Y-132726097D01*
X186173659Y-132726096D01*
X186173655Y-132726094D01*
X185945413Y-132664938D01*
X185945403Y-132664936D01*
X185710001Y-132644341D01*
X185709999Y-132644341D01*
X185474596Y-132664936D01*
X185474586Y-132664938D01*
X185246344Y-132726094D01*
X185246335Y-132726098D01*
X185032171Y-132825964D01*
X185032169Y-132825965D01*
X184838597Y-132961505D01*
X184671505Y-133128597D01*
X184541575Y-133314158D01*
X184486998Y-133357783D01*
X184417500Y-133364977D01*
X184355145Y-133333454D01*
X184338425Y-133314158D01*
X184208494Y-133128597D01*
X184041402Y-132961506D01*
X184041395Y-132961501D01*
X183847834Y-132825967D01*
X183847830Y-132825965D01*
X183842089Y-132823288D01*
X183633663Y-132726097D01*
X183633659Y-132726096D01*
X183633655Y-132726094D01*
X183405413Y-132664938D01*
X183405403Y-132664936D01*
X183170001Y-132644341D01*
X183169999Y-132644341D01*
X182934596Y-132664936D01*
X182934586Y-132664938D01*
X182706344Y-132726094D01*
X182706335Y-132726098D01*
X182492171Y-132825964D01*
X182492169Y-132825965D01*
X182298597Y-132961505D01*
X182131505Y-133128597D01*
X182001575Y-133314158D01*
X181946998Y-133357783D01*
X181877500Y-133364977D01*
X181815145Y-133333454D01*
X181798425Y-133314158D01*
X181668494Y-133128597D01*
X181501402Y-132961506D01*
X181501395Y-132961501D01*
X181307834Y-132825967D01*
X181307830Y-132825965D01*
X181302089Y-132823288D01*
X181093663Y-132726097D01*
X181093659Y-132726096D01*
X181093655Y-132726094D01*
X180865413Y-132664938D01*
X180865403Y-132664936D01*
X180630001Y-132644341D01*
X180629999Y-132644341D01*
X180394596Y-132664936D01*
X180394586Y-132664938D01*
X180166344Y-132726094D01*
X180166335Y-132726098D01*
X179952171Y-132825964D01*
X179952169Y-132825965D01*
X179758597Y-132961505D01*
X179591505Y-133128597D01*
X179461575Y-133314158D01*
X179406998Y-133357783D01*
X179337500Y-133364977D01*
X179275145Y-133333454D01*
X179258425Y-133314158D01*
X179128494Y-133128597D01*
X178961402Y-132961506D01*
X178961395Y-132961501D01*
X178767831Y-132825965D01*
X178767826Y-132825962D01*
X178762091Y-132823288D01*
X178709653Y-132777113D01*
X178690500Y-132710908D01*
X178690500Y-131999996D01*
X192494415Y-131999996D01*
X192494415Y-132000003D01*
X192514738Y-132348927D01*
X192514739Y-132348938D01*
X192575428Y-132693127D01*
X192575430Y-132693134D01*
X192675674Y-133027972D01*
X192814107Y-133348895D01*
X192814113Y-133348908D01*
X192988870Y-133651597D01*
X193197584Y-133931949D01*
X193197589Y-133931955D01*
X193199683Y-133934174D01*
X193437442Y-134186183D01*
X193581435Y-134307007D01*
X193705186Y-134410847D01*
X193705194Y-134410853D01*
X193997203Y-134602911D01*
X193997207Y-134602913D01*
X194309549Y-134759777D01*
X194637989Y-134879319D01*
X194978086Y-134959923D01*
X195325241Y-135000500D01*
X195325248Y-135000500D01*
X195674752Y-135000500D01*
X195674759Y-135000500D01*
X196021914Y-134959923D01*
X196362011Y-134879319D01*
X196690451Y-134759777D01*
X197002793Y-134602913D01*
X197294811Y-134410849D01*
X197562558Y-134186183D01*
X197802412Y-133931953D01*
X198011130Y-133651596D01*
X198185889Y-133348904D01*
X198324326Y-133027971D01*
X198424569Y-132693136D01*
X198429542Y-132664937D01*
X198485260Y-132348938D01*
X198485259Y-132348938D01*
X198485262Y-132348927D01*
X198501710Y-132066532D01*
X198525259Y-132000750D01*
X198529732Y-131997307D01*
X198506523Y-131961192D01*
X198501710Y-131933467D01*
X198499241Y-131891079D01*
X198485262Y-131651073D01*
X198485260Y-131651061D01*
X198424571Y-131306872D01*
X198424569Y-131306865D01*
X198324325Y-130972027D01*
X198305875Y-130929255D01*
X198185889Y-130651096D01*
X198034194Y-130388352D01*
X198011129Y-130348402D01*
X197802415Y-130068050D01*
X197802410Y-130068044D01*
X197685790Y-129944435D01*
X197562558Y-129813817D01*
X197388084Y-129667416D01*
X197294813Y-129589152D01*
X197294805Y-129589146D01*
X197002796Y-129397088D01*
X196690458Y-129240226D01*
X196690452Y-129240223D01*
X196362012Y-129120681D01*
X196362009Y-129120680D01*
X196021915Y-129040077D01*
X195978519Y-129035004D01*
X195674759Y-128999500D01*
X195325241Y-128999500D01*
X195021480Y-129035004D01*
X194978085Y-129040077D01*
X194978083Y-129040077D01*
X194637990Y-129120680D01*
X194637987Y-129120681D01*
X194309547Y-129240223D01*
X194309541Y-129240226D01*
X193997203Y-129397088D01*
X193705194Y-129589146D01*
X193705186Y-129589152D01*
X193437442Y-129813817D01*
X193437440Y-129813819D01*
X193197589Y-130068044D01*
X193197584Y-130068050D01*
X192988870Y-130348402D01*
X192814113Y-130651091D01*
X192814107Y-130651104D01*
X192675674Y-130972027D01*
X192575430Y-131306865D01*
X192575428Y-131306872D01*
X192514739Y-131651061D01*
X192514738Y-131651072D01*
X192494415Y-131999996D01*
X178690500Y-131999996D01*
X178690500Y-129755097D01*
X178710185Y-129688058D01*
X178726819Y-129667416D01*
X179507416Y-128886819D01*
X179568739Y-128853334D01*
X179595097Y-128850500D01*
X192167588Y-128850500D01*
X192234627Y-128870185D01*
X192244903Y-128877555D01*
X192247736Y-128879814D01*
X192247738Y-128879816D01*
X192361270Y-128951152D01*
X192398394Y-128974480D01*
X192400478Y-128975789D01*
X192570745Y-129035368D01*
X192570750Y-129035369D01*
X192749996Y-129055565D01*
X192750000Y-129055565D01*
X192750004Y-129055565D01*
X192929249Y-129035369D01*
X192929252Y-129035368D01*
X192929255Y-129035368D01*
X193099522Y-128975789D01*
X193252262Y-128879816D01*
X193379816Y-128752262D01*
X193475789Y-128599522D01*
X193535368Y-128429255D01*
X193555565Y-128250000D01*
X193535368Y-128070745D01*
X193475789Y-127900478D01*
X193379816Y-127747738D01*
X193252262Y-127620184D01*
X193219377Y-127599521D01*
X193099523Y-127524211D01*
X192929254Y-127464631D01*
X192929249Y-127464630D01*
X192750004Y-127444435D01*
X192749996Y-127444435D01*
X192570750Y-127464630D01*
X192570745Y-127464631D01*
X192400476Y-127524211D01*
X192247736Y-127620185D01*
X192244903Y-127622445D01*
X192242724Y-127623334D01*
X192241842Y-127623889D01*
X192241744Y-127623734D01*
X192180217Y-127648855D01*
X192167588Y-127649500D01*
X179215940Y-127649500D01*
X179175019Y-127660464D01*
X179175019Y-127660465D01*
X179137751Y-127670451D01*
X179063214Y-127690423D01*
X179063209Y-127690426D01*
X178926290Y-127769475D01*
X178926282Y-127769481D01*
X177609481Y-129086282D01*
X177609479Y-129086285D01*
X177559361Y-129173094D01*
X177559359Y-129173096D01*
X177530425Y-129223209D01*
X177530424Y-129223210D01*
X177525865Y-129240226D01*
X177489499Y-129375943D01*
X177489499Y-129375945D01*
X177489499Y-129544046D01*
X177489500Y-129544059D01*
X177489500Y-132250903D01*
X177469815Y-132317942D01*
X177417011Y-132363697D01*
X177347853Y-132373641D01*
X177284297Y-132344616D01*
X177277819Y-132338584D01*
X175327590Y-130388355D01*
X175327588Y-130388352D01*
X175208717Y-130269481D01*
X175208709Y-130269475D01*
X175106936Y-130210717D01*
X175106934Y-130210716D01*
X175071790Y-130190425D01*
X175071789Y-130190424D01*
X175059263Y-130187067D01*
X174919057Y-130149499D01*
X174760943Y-130149499D01*
X174753347Y-130149499D01*
X174753331Y-130149500D01*
X136832412Y-130149500D01*
X136765373Y-130129815D01*
X136755097Y-130122445D01*
X136752263Y-130120185D01*
X136752262Y-130120184D01*
X136695496Y-130084515D01*
X136599523Y-130024211D01*
X136429254Y-129964631D01*
X136429249Y-129964630D01*
X136250004Y-129944435D01*
X136249996Y-129944435D01*
X136070750Y-129964630D01*
X136070745Y-129964631D01*
X135900476Y-130024211D01*
X135747737Y-130120184D01*
X135620184Y-130247737D01*
X135524211Y-130400476D01*
X135464631Y-130570745D01*
X135464630Y-130570750D01*
X135444435Y-130749996D01*
X135444435Y-130750003D01*
X135464630Y-130929249D01*
X135464631Y-130929254D01*
X135524211Y-131099523D01*
X135620184Y-131252262D01*
X135747738Y-131379816D01*
X135900478Y-131475789D01*
X136070745Y-131535368D01*
X136070750Y-131535369D01*
X136249996Y-131555565D01*
X136250000Y-131555565D01*
X136250004Y-131555565D01*
X136429249Y-131535369D01*
X136429252Y-131535368D01*
X136429255Y-131535368D01*
X136599522Y-131475789D01*
X136752262Y-131379816D01*
X136752267Y-131379810D01*
X136755097Y-131377555D01*
X136757275Y-131376665D01*
X136758158Y-131376111D01*
X136758255Y-131376265D01*
X136819783Y-131351145D01*
X136832412Y-131350500D01*
X174539903Y-131350500D01*
X174606942Y-131370185D01*
X174627584Y-131386819D01*
X175676333Y-132435568D01*
X175709818Y-132496891D01*
X175704834Y-132566583D01*
X175662962Y-132622516D01*
X175597498Y-132646933D01*
X175577844Y-132646777D01*
X175550001Y-132644341D01*
X175549999Y-132644341D01*
X175314596Y-132664936D01*
X175314586Y-132664938D01*
X175086344Y-132726094D01*
X175086335Y-132726098D01*
X174872171Y-132825964D01*
X174872169Y-132825965D01*
X174678597Y-132961505D01*
X174511508Y-133128594D01*
X174381269Y-133314595D01*
X174326692Y-133358219D01*
X174257193Y-133365412D01*
X174194839Y-133333890D01*
X174178119Y-133314594D01*
X174048113Y-133128926D01*
X174048108Y-133128920D01*
X173881082Y-132961894D01*
X173687578Y-132826399D01*
X173473492Y-132726570D01*
X173473486Y-132726567D01*
X173260000Y-132669364D01*
X173260000Y-133566988D01*
X173202993Y-133534075D01*
X173075826Y-133500000D01*
X172944174Y-133500000D01*
X172817007Y-133534075D01*
X172760000Y-133566988D01*
X172760000Y-132669364D01*
X172759999Y-132669364D01*
X172546513Y-132726567D01*
X172546507Y-132726570D01*
X172332422Y-132826399D01*
X172332420Y-132826400D01*
X172138926Y-132961886D01*
X172138920Y-132961891D01*
X171971891Y-133128920D01*
X171971886Y-133128926D01*
X171836400Y-133322420D01*
X171836399Y-133322422D01*
X171736570Y-133536507D01*
X171736567Y-133536513D01*
X171679364Y-133749999D01*
X171679364Y-133750000D01*
X172576988Y-133750000D01*
X172544075Y-133807007D01*
X172510000Y-133934174D01*
X172510000Y-134065826D01*
X172544075Y-134192993D01*
X172576988Y-134250000D01*
X171679364Y-134250000D01*
X171736567Y-134463486D01*
X171736570Y-134463492D01*
X171836399Y-134677578D01*
X171971894Y-134871082D01*
X172138631Y-135037819D01*
X172172116Y-135099142D01*
X172167132Y-135168834D01*
X172125260Y-135224767D01*
X172059796Y-135249184D01*
X172050950Y-135249500D01*
X128374500Y-135249500D01*
X128307461Y-135229815D01*
X128261706Y-135177011D01*
X128250500Y-135125500D01*
X128250500Y-132073742D01*
X128270185Y-132006703D01*
X128274814Y-132002691D01*
X128470267Y-132002691D01*
X128493477Y-132038807D01*
X128498290Y-132066532D01*
X128514738Y-132348927D01*
X128514739Y-132348938D01*
X128575428Y-132693127D01*
X128575430Y-132693134D01*
X128675674Y-133027972D01*
X128814107Y-133348895D01*
X128814113Y-133348908D01*
X128988870Y-133651597D01*
X129197584Y-133931949D01*
X129197589Y-133931955D01*
X129199683Y-133934174D01*
X129437442Y-134186183D01*
X129581435Y-134307007D01*
X129705186Y-134410847D01*
X129705194Y-134410853D01*
X129997203Y-134602911D01*
X129997207Y-134602913D01*
X130309549Y-134759777D01*
X130637989Y-134879319D01*
X130978086Y-134959923D01*
X131325241Y-135000500D01*
X131325248Y-135000500D01*
X131674752Y-135000500D01*
X131674759Y-135000500D01*
X132021914Y-134959923D01*
X132362011Y-134879319D01*
X132690451Y-134759777D01*
X133002793Y-134602913D01*
X133294811Y-134410849D01*
X133562558Y-134186183D01*
X133802412Y-133931953D01*
X134011130Y-133651596D01*
X134185889Y-133348904D01*
X134324326Y-133027971D01*
X134424569Y-132693136D01*
X134429542Y-132664937D01*
X134485260Y-132348938D01*
X134485259Y-132348938D01*
X134485262Y-132348927D01*
X134505585Y-132000000D01*
X134485262Y-131651073D01*
X134485260Y-131651061D01*
X134424571Y-131306872D01*
X134424569Y-131306865D01*
X134324325Y-130972027D01*
X134305875Y-130929255D01*
X134185889Y-130651096D01*
X134034194Y-130388352D01*
X134011129Y-130348402D01*
X133802415Y-130068050D01*
X133802410Y-130068044D01*
X133685790Y-129944435D01*
X133562558Y-129813817D01*
X133388084Y-129667416D01*
X133294813Y-129589152D01*
X133294805Y-129589146D01*
X133002796Y-129397088D01*
X132690458Y-129240226D01*
X132690452Y-129240223D01*
X132362012Y-129120681D01*
X132362009Y-129120680D01*
X132021915Y-129040077D01*
X131978519Y-129035004D01*
X131674759Y-128999500D01*
X131325241Y-128999500D01*
X131021480Y-129035004D01*
X130978085Y-129040077D01*
X130978083Y-129040077D01*
X130637990Y-129120680D01*
X130637987Y-129120681D01*
X130309547Y-129240223D01*
X130309541Y-129240226D01*
X129997203Y-129397088D01*
X129705194Y-129589146D01*
X129705186Y-129589152D01*
X129437442Y-129813817D01*
X129437440Y-129813819D01*
X129197589Y-130068044D01*
X129197584Y-130068050D01*
X128988870Y-130348402D01*
X128814113Y-130651091D01*
X128814107Y-130651104D01*
X128675674Y-130972027D01*
X128575430Y-131306865D01*
X128575428Y-131306872D01*
X128514739Y-131651061D01*
X128514738Y-131651072D01*
X128498290Y-131933467D01*
X128474741Y-131999249D01*
X128470267Y-132002691D01*
X128274814Y-132002691D01*
X128278972Y-131999088D01*
X128253693Y-131954215D01*
X128250500Y-131926257D01*
X128250500Y-127249996D01*
X135444435Y-127249996D01*
X135444435Y-127250003D01*
X135464630Y-127429249D01*
X135464631Y-127429254D01*
X135524211Y-127599523D01*
X135555209Y-127648855D01*
X135620184Y-127752262D01*
X135747738Y-127879816D01*
X135900478Y-127975789D01*
X136070745Y-128035368D01*
X136070750Y-128035369D01*
X136249996Y-128055565D01*
X136250000Y-128055565D01*
X136250004Y-128055565D01*
X136429249Y-128035369D01*
X136429252Y-128035368D01*
X136429255Y-128035368D01*
X136599522Y-127975789D01*
X136752262Y-127879816D01*
X136879816Y-127752262D01*
X136975789Y-127599522D01*
X137035368Y-127429255D01*
X137045161Y-127342329D01*
X137072226Y-127277918D01*
X137080690Y-127268543D01*
X142462416Y-121886819D01*
X142523739Y-121853334D01*
X142550097Y-121850500D01*
X146167588Y-121850500D01*
X146234627Y-121870185D01*
X146244903Y-121877555D01*
X146247736Y-121879814D01*
X146247738Y-121879816D01*
X146400478Y-121975789D01*
X146513603Y-122015373D01*
X146570745Y-122035368D01*
X146570750Y-122035369D01*
X146749996Y-122055565D01*
X146750000Y-122055565D01*
X146750004Y-122055565D01*
X146929249Y-122035369D01*
X146929252Y-122035368D01*
X146929255Y-122035368D01*
X147099522Y-121975789D01*
X147252262Y-121879816D01*
X147379816Y-121752262D01*
X147475789Y-121599522D01*
X147501992Y-121524637D01*
X147542712Y-121467863D01*
X147607664Y-121442114D01*
X147632910Y-121442371D01*
X147657670Y-121445161D01*
X147722082Y-121472228D01*
X147731465Y-121480700D01*
X149363181Y-123112416D01*
X149396666Y-123173739D01*
X149399500Y-123200097D01*
X149399500Y-123210908D01*
X149379815Y-123277947D01*
X149327914Y-123323286D01*
X149322173Y-123325963D01*
X149322169Y-123325965D01*
X149128597Y-123461505D01*
X148961508Y-123628594D01*
X148831269Y-123814595D01*
X148776692Y-123858219D01*
X148707193Y-123865412D01*
X148644839Y-123833890D01*
X148628119Y-123814594D01*
X148498113Y-123628926D01*
X148498108Y-123628920D01*
X148331082Y-123461894D01*
X148137578Y-123326399D01*
X147923492Y-123226570D01*
X147923486Y-123226567D01*
X147710000Y-123169364D01*
X147710000Y-124066988D01*
X147652993Y-124034075D01*
X147525826Y-124000000D01*
X147394174Y-124000000D01*
X147267007Y-124034075D01*
X147210000Y-124066988D01*
X147210000Y-123169364D01*
X147209999Y-123169364D01*
X146996513Y-123226567D01*
X146996507Y-123226570D01*
X146782422Y-123326399D01*
X146782420Y-123326400D01*
X146588926Y-123461886D01*
X146466865Y-123583947D01*
X146405542Y-123617431D01*
X146335850Y-123612447D01*
X146279917Y-123570575D01*
X146263002Y-123539598D01*
X146213797Y-123407671D01*
X146213793Y-123407664D01*
X146127547Y-123292455D01*
X146127544Y-123292452D01*
X146012335Y-123206206D01*
X146012328Y-123206202D01*
X145877482Y-123155908D01*
X145877483Y-123155908D01*
X145817883Y-123149501D01*
X145817881Y-123149500D01*
X145817873Y-123149500D01*
X145817864Y-123149500D01*
X144022129Y-123149500D01*
X144022123Y-123149501D01*
X143962516Y-123155908D01*
X143827671Y-123206202D01*
X143827664Y-123206206D01*
X143712455Y-123292452D01*
X143712452Y-123292455D01*
X143626206Y-123407664D01*
X143626202Y-123407671D01*
X143575908Y-123542517D01*
X143569501Y-123602116D01*
X143569500Y-123602135D01*
X143569500Y-125397870D01*
X143569501Y-125397876D01*
X143575908Y-125457483D01*
X143626202Y-125592328D01*
X143626206Y-125592335D01*
X143712452Y-125707544D01*
X143712455Y-125707547D01*
X143827664Y-125793793D01*
X143827671Y-125793797D01*
X143962517Y-125844091D01*
X143962516Y-125844091D01*
X143969444Y-125844835D01*
X144022127Y-125850500D01*
X145817872Y-125850499D01*
X145877483Y-125844091D01*
X146012331Y-125793796D01*
X146127546Y-125707546D01*
X146213796Y-125592331D01*
X146263002Y-125460401D01*
X146304872Y-125404468D01*
X146370337Y-125380050D01*
X146438610Y-125394901D01*
X146466865Y-125416053D01*
X146588917Y-125538105D01*
X146782421Y-125673600D01*
X146996507Y-125773429D01*
X146996516Y-125773433D01*
X147210000Y-125830634D01*
X147210000Y-124933012D01*
X147267007Y-124965925D01*
X147394174Y-125000000D01*
X147525826Y-125000000D01*
X147652993Y-124965925D01*
X147710000Y-124933012D01*
X147710000Y-125830633D01*
X147923483Y-125773433D01*
X147923492Y-125773429D01*
X148137578Y-125673600D01*
X148331082Y-125538105D01*
X148498105Y-125371082D01*
X148628119Y-125185405D01*
X148682696Y-125141781D01*
X148752195Y-125134588D01*
X148814549Y-125166110D01*
X148831269Y-125185405D01*
X148961505Y-125371401D01*
X149128599Y-125538495D01*
X149225384Y-125606265D01*
X149322165Y-125674032D01*
X149322167Y-125674033D01*
X149322170Y-125674035D01*
X149536337Y-125773903D01*
X149764592Y-125835063D01*
X149941034Y-125850500D01*
X149999999Y-125855659D01*
X150000000Y-125855659D01*
X150000001Y-125855659D01*
X150058966Y-125850500D01*
X150235408Y-125835063D01*
X150463663Y-125773903D01*
X150677830Y-125674035D01*
X150871401Y-125538495D01*
X151038495Y-125371401D01*
X151168425Y-125185842D01*
X151223002Y-125142217D01*
X151292500Y-125135023D01*
X151354855Y-125166546D01*
X151371575Y-125185842D01*
X151501500Y-125371395D01*
X151501505Y-125371401D01*
X151668599Y-125538495D01*
X151765384Y-125606265D01*
X151862165Y-125674032D01*
X151862167Y-125674033D01*
X151862170Y-125674035D01*
X152076337Y-125773903D01*
X152304592Y-125835063D01*
X152481034Y-125850500D01*
X152539999Y-125855659D01*
X152540000Y-125855659D01*
X152540001Y-125855659D01*
X152598966Y-125850500D01*
X152775408Y-125835063D01*
X153003663Y-125773903D01*
X153217830Y-125674035D01*
X153411401Y-125538495D01*
X153578495Y-125371401D01*
X153714035Y-125177830D01*
X153813903Y-124963663D01*
X153875063Y-124735408D01*
X153895659Y-124500000D01*
X153875063Y-124264592D01*
X153813903Y-124036337D01*
X153714035Y-123822171D01*
X153708731Y-123814595D01*
X153578494Y-123628597D01*
X153411402Y-123461506D01*
X153411395Y-123461501D01*
X153217831Y-123325965D01*
X153217826Y-123325962D01*
X153212091Y-123323288D01*
X153159653Y-123277113D01*
X153140500Y-123210908D01*
X153140500Y-122460945D01*
X153140500Y-122460943D01*
X153099577Y-122308216D01*
X153099573Y-122308209D01*
X153020524Y-122171290D01*
X153020521Y-122171286D01*
X153020520Y-122171284D01*
X152908716Y-122059480D01*
X152908715Y-122059479D01*
X152904385Y-122055149D01*
X152904374Y-122055139D01*
X150487590Y-119638355D01*
X150487588Y-119638352D01*
X150368717Y-119519481D01*
X150368709Y-119519475D01*
X150266936Y-119460717D01*
X150266934Y-119460716D01*
X150231790Y-119440425D01*
X150231789Y-119440424D01*
X150219263Y-119437067D01*
X150079057Y-119399499D01*
X149920943Y-119399499D01*
X149913347Y-119399499D01*
X149913331Y-119399500D01*
X145832412Y-119399500D01*
X145765373Y-119379815D01*
X145755097Y-119372445D01*
X145752263Y-119370185D01*
X145752262Y-119370184D01*
X145695496Y-119334515D01*
X145599523Y-119274211D01*
X145429254Y-119214631D01*
X145429249Y-119214630D01*
X145250004Y-119194435D01*
X145249996Y-119194435D01*
X145070750Y-119214630D01*
X145070745Y-119214631D01*
X144900476Y-119274211D01*
X144747737Y-119370184D01*
X144620184Y-119497737D01*
X144524211Y-119650476D01*
X144464631Y-119820745D01*
X144464630Y-119820750D01*
X144444435Y-119999996D01*
X144444435Y-120000003D01*
X144464630Y-120179249D01*
X144464631Y-120179254D01*
X144524211Y-120349524D01*
X144593332Y-120459527D01*
X144612333Y-120526764D01*
X144591966Y-120593599D01*
X144538698Y-120638814D01*
X144488339Y-120649500D01*
X142170940Y-120649500D01*
X142130019Y-120660464D01*
X142130019Y-120660465D01*
X142092751Y-120670451D01*
X142018214Y-120690423D01*
X142018209Y-120690426D01*
X141881290Y-120769475D01*
X141881282Y-120769481D01*
X141769478Y-120881286D01*
X136231465Y-126419298D01*
X136170142Y-126452783D01*
X136157668Y-126454837D01*
X136070750Y-126464630D01*
X135900478Y-126524210D01*
X135747737Y-126620184D01*
X135620184Y-126747737D01*
X135524211Y-126900476D01*
X135464631Y-127070745D01*
X135464630Y-127070750D01*
X135444435Y-127249996D01*
X128250500Y-127249996D01*
X128250500Y-119663389D01*
X133124500Y-119663389D01*
X133124500Y-119836610D01*
X133150378Y-120000003D01*
X133151598Y-120007701D01*
X133205127Y-120172445D01*
X133283768Y-120326788D01*
X133385586Y-120466928D01*
X133508072Y-120589414D01*
X133648212Y-120691232D01*
X133802555Y-120769873D01*
X133967299Y-120823402D01*
X134138389Y-120850500D01*
X134138390Y-120850500D01*
X134861610Y-120850500D01*
X134861611Y-120850500D01*
X135032701Y-120823402D01*
X135197445Y-120769873D01*
X135351788Y-120691232D01*
X135491928Y-120589414D01*
X135614414Y-120466928D01*
X135716232Y-120326788D01*
X135794873Y-120172445D01*
X135848402Y-120007701D01*
X135875500Y-119836611D01*
X135875500Y-119663389D01*
X135848402Y-119492299D01*
X135794873Y-119327555D01*
X135716232Y-119173212D01*
X135614414Y-119033072D01*
X135506508Y-118925166D01*
X135473023Y-118863843D01*
X135478007Y-118794151D01*
X135519879Y-118738218D01*
X135529094Y-118731945D01*
X135593345Y-118692315D01*
X135717315Y-118568345D01*
X135809356Y-118419124D01*
X135809358Y-118419119D01*
X135864505Y-118252697D01*
X135864506Y-118252690D01*
X135874999Y-118149986D01*
X135875000Y-118149973D01*
X135875000Y-118000000D01*
X134780330Y-118000000D01*
X134800075Y-117980255D01*
X134849444Y-117894745D01*
X134875000Y-117799370D01*
X134875000Y-117700630D01*
X134849444Y-117605255D01*
X134800075Y-117519745D01*
X134780330Y-117500000D01*
X135874999Y-117500000D01*
X135874999Y-117350028D01*
X135874998Y-117350013D01*
X135864505Y-117247302D01*
X135809358Y-117080880D01*
X135809356Y-117080875D01*
X135717315Y-116931654D01*
X135593345Y-116807684D01*
X135444124Y-116715643D01*
X135444119Y-116715641D01*
X135277697Y-116660494D01*
X135277690Y-116660493D01*
X135174986Y-116650000D01*
X134750000Y-116650000D01*
X134750000Y-117469670D01*
X134730255Y-117449925D01*
X134644745Y-117400556D01*
X134549370Y-117375000D01*
X134450630Y-117375000D01*
X134355255Y-117400556D01*
X134269745Y-117449925D01*
X134250000Y-117469670D01*
X134250000Y-116650000D01*
X133825028Y-116650000D01*
X133825012Y-116650001D01*
X133722302Y-116660494D01*
X133555880Y-116715641D01*
X133555875Y-116715643D01*
X133406654Y-116807684D01*
X133282684Y-116931654D01*
X133190643Y-117080875D01*
X133190641Y-117080880D01*
X133135494Y-117247302D01*
X133135493Y-117247309D01*
X133125000Y-117350013D01*
X133125000Y-117500000D01*
X134219670Y-117500000D01*
X134199925Y-117519745D01*
X134150556Y-117605255D01*
X134125000Y-117700630D01*
X134125000Y-117799370D01*
X134150556Y-117894745D01*
X134199925Y-117980255D01*
X134219670Y-118000000D01*
X133125001Y-118000000D01*
X133125001Y-118149986D01*
X133135494Y-118252697D01*
X133190641Y-118419119D01*
X133190643Y-118419124D01*
X133282684Y-118568345D01*
X133406656Y-118692317D01*
X133470906Y-118731946D01*
X133517631Y-118783893D01*
X133528854Y-118852856D01*
X133501011Y-118916938D01*
X133493492Y-118925166D01*
X133385585Y-119033073D01*
X133283768Y-119173211D01*
X133205128Y-119327552D01*
X133151597Y-119492302D01*
X133124500Y-119663389D01*
X128250500Y-119663389D01*
X128250500Y-116499996D01*
X136944435Y-116499996D01*
X136944435Y-116500003D01*
X136964630Y-116679249D01*
X136964631Y-116679254D01*
X137024211Y-116849523D01*
X137090927Y-116955700D01*
X137120184Y-117002262D01*
X137247738Y-117129816D01*
X137338080Y-117186582D01*
X137370115Y-117206711D01*
X137400478Y-117225789D01*
X137570745Y-117285368D01*
X137570750Y-117285369D01*
X137749996Y-117305565D01*
X137750000Y-117305565D01*
X137750004Y-117305565D01*
X137929249Y-117285369D01*
X137929252Y-117285368D01*
X137929255Y-117285368D01*
X138030342Y-117249996D01*
X148944435Y-117249996D01*
X148944435Y-117250003D01*
X148964630Y-117429249D01*
X148964631Y-117429254D01*
X149024211Y-117599523D01*
X149027813Y-117605255D01*
X149120184Y-117752262D01*
X149247738Y-117879816D01*
X149400478Y-117975789D01*
X149480706Y-118003862D01*
X149570745Y-118035368D01*
X149570750Y-118035369D01*
X149749996Y-118055565D01*
X149750000Y-118055565D01*
X149750004Y-118055565D01*
X149929249Y-118035369D01*
X149929252Y-118035368D01*
X149929255Y-118035368D01*
X150099522Y-117975789D01*
X150252262Y-117879816D01*
X150369943Y-117762134D01*
X150431262Y-117728652D01*
X150500954Y-117733636D01*
X150556888Y-117775507D01*
X150574663Y-117808863D01*
X150608569Y-117905762D01*
X150690007Y-118035369D01*
X150704542Y-118058501D01*
X150832096Y-118186055D01*
X150984836Y-118282028D01*
X151098217Y-118321701D01*
X151154992Y-118362423D01*
X151180740Y-118427375D01*
X151167284Y-118495937D01*
X151162258Y-118504712D01*
X151149211Y-118525476D01*
X151089631Y-118695745D01*
X151089630Y-118695750D01*
X151069435Y-118874996D01*
X151069435Y-118875003D01*
X151089630Y-119054249D01*
X151089631Y-119054254D01*
X151149211Y-119224523D01*
X151213949Y-119327552D01*
X151245184Y-119377262D01*
X151372738Y-119504816D01*
X151525478Y-119600789D01*
X151695745Y-119660368D01*
X151782669Y-119670161D01*
X151847080Y-119697226D01*
X151856465Y-119705700D01*
X154113181Y-121962416D01*
X154146666Y-122023739D01*
X154149500Y-122050097D01*
X154149500Y-122917587D01*
X154129815Y-122984626D01*
X154122450Y-122994896D01*
X154120186Y-122997734D01*
X154024211Y-123150476D01*
X153964631Y-123320745D01*
X153964630Y-123320750D01*
X153944435Y-123499996D01*
X153944435Y-123500003D01*
X153964630Y-123679249D01*
X153964631Y-123679254D01*
X154024211Y-123849523D01*
X154118763Y-124000000D01*
X154120184Y-124002262D01*
X154247738Y-124129816D01*
X154338080Y-124186582D01*
X154348283Y-124192993D01*
X154400478Y-124225789D01*
X154511371Y-124264592D01*
X154570745Y-124285368D01*
X154570750Y-124285369D01*
X154749996Y-124305565D01*
X154750000Y-124305565D01*
X154750004Y-124305565D01*
X154929249Y-124285369D01*
X154929252Y-124285368D01*
X154929255Y-124285368D01*
X155099522Y-124225789D01*
X155252262Y-124129816D01*
X155379816Y-124002262D01*
X155475789Y-123849522D01*
X155535368Y-123679255D01*
X155535901Y-123674523D01*
X155555565Y-123500003D01*
X155555565Y-123499996D01*
X155535369Y-123320750D01*
X155535368Y-123320745D01*
X155520392Y-123277947D01*
X155475789Y-123150478D01*
X155475174Y-123149500D01*
X155442645Y-123097730D01*
X155379816Y-122997738D01*
X155379814Y-122997736D01*
X155379813Y-122997734D01*
X155377550Y-122994896D01*
X155376659Y-122992715D01*
X155376111Y-122991842D01*
X155376264Y-122991745D01*
X155351144Y-122930209D01*
X155350500Y-122917587D01*
X155350500Y-121839059D01*
X155350501Y-121839046D01*
X155350501Y-121670945D01*
X155350501Y-121670943D01*
X155309577Y-121518215D01*
X155299058Y-121499996D01*
X160444435Y-121499996D01*
X160444435Y-121500003D01*
X160464630Y-121679249D01*
X160464631Y-121679254D01*
X160524211Y-121849523D01*
X160620185Y-122002263D01*
X160622445Y-122005097D01*
X160623334Y-122007275D01*
X160623889Y-122008158D01*
X160623734Y-122008255D01*
X160648855Y-122069783D01*
X160649500Y-122082412D01*
X160649500Y-122742587D01*
X160629815Y-122809626D01*
X160622450Y-122819896D01*
X160620186Y-122822734D01*
X160524211Y-122975476D01*
X160464631Y-123145745D01*
X160464630Y-123145750D01*
X160444435Y-123324996D01*
X160444435Y-123325003D01*
X160464630Y-123504249D01*
X160464631Y-123504254D01*
X160524211Y-123674523D01*
X160604994Y-123803087D01*
X160620184Y-123827262D01*
X160747738Y-123954816D01*
X160819648Y-124000000D01*
X160877474Y-124036335D01*
X160900478Y-124050789D01*
X161040832Y-124099901D01*
X161070745Y-124110368D01*
X161070750Y-124110369D01*
X161249996Y-124130565D01*
X161250000Y-124130565D01*
X161250004Y-124130565D01*
X161429249Y-124110369D01*
X161429252Y-124110368D01*
X161429255Y-124110368D01*
X161599522Y-124050789D01*
X161752262Y-123954816D01*
X161787319Y-123919759D01*
X161848642Y-123886274D01*
X161918334Y-123891258D01*
X161962681Y-123919759D01*
X161997738Y-123954816D01*
X162069648Y-124000000D01*
X162127474Y-124036335D01*
X162150478Y-124050789D01*
X162290832Y-124099901D01*
X162320745Y-124110368D01*
X162320750Y-124110369D01*
X162499996Y-124130565D01*
X162500000Y-124130565D01*
X162500004Y-124130565D01*
X162679249Y-124110369D01*
X162679252Y-124110368D01*
X162679255Y-124110368D01*
X162849522Y-124050789D01*
X163002262Y-123954816D01*
X163129816Y-123827262D01*
X163145007Y-123803084D01*
X163197339Y-123756796D01*
X163266393Y-123746146D01*
X163330242Y-123774521D01*
X163354990Y-123803082D01*
X163370184Y-123827262D01*
X163497738Y-123954816D01*
X163569648Y-124000000D01*
X163627474Y-124036335D01*
X163650478Y-124050789D01*
X163790832Y-124099901D01*
X163820745Y-124110368D01*
X163820750Y-124110369D01*
X163999996Y-124130565D01*
X164000000Y-124130565D01*
X164000004Y-124130565D01*
X164179249Y-124110369D01*
X164179252Y-124110368D01*
X164179255Y-124110368D01*
X164349522Y-124050789D01*
X164502262Y-123954816D01*
X164629816Y-123827262D01*
X164725789Y-123674522D01*
X164785368Y-123504255D01*
X164785847Y-123500003D01*
X164805565Y-123325003D01*
X164805565Y-123324996D01*
X164785369Y-123145750D01*
X164785368Y-123145745D01*
X164733578Y-122997738D01*
X164725789Y-122975478D01*
X164721355Y-122968422D01*
X164629813Y-122822734D01*
X164627550Y-122819896D01*
X164626659Y-122817715D01*
X164626111Y-122816842D01*
X164626264Y-122816745D01*
X164601144Y-122755209D01*
X164600500Y-122742587D01*
X164600500Y-122082412D01*
X164620185Y-122015373D01*
X164627555Y-122005097D01*
X164629812Y-122002266D01*
X164629816Y-122002262D01*
X164725789Y-121849522D01*
X164785368Y-121679255D01*
X164785369Y-121679249D01*
X164805565Y-121500003D01*
X164805565Y-121499996D01*
X164785369Y-121320750D01*
X164785368Y-121320745D01*
X164725788Y-121150476D01*
X164629815Y-120997737D01*
X164502262Y-120870184D01*
X164349523Y-120774211D01*
X164179254Y-120714631D01*
X164179249Y-120714630D01*
X164000004Y-120694435D01*
X163999996Y-120694435D01*
X163820750Y-120714630D01*
X163820745Y-120714631D01*
X163650476Y-120774211D01*
X163497737Y-120870184D01*
X163370184Y-120997737D01*
X163354994Y-121021913D01*
X163302659Y-121068204D01*
X163233605Y-121078852D01*
X163169757Y-121050477D01*
X163145006Y-121021913D01*
X163129815Y-120997737D01*
X163002262Y-120870184D01*
X162849523Y-120774211D01*
X162679254Y-120714631D01*
X162679249Y-120714630D01*
X162500004Y-120694435D01*
X162499996Y-120694435D01*
X162320750Y-120714630D01*
X162320745Y-120714631D01*
X162150476Y-120774211D01*
X161997737Y-120870184D01*
X161962681Y-120905241D01*
X161901358Y-120938726D01*
X161831666Y-120933742D01*
X161787319Y-120905241D01*
X161752262Y-120870184D01*
X161599523Y-120774211D01*
X161429254Y-120714631D01*
X161429249Y-120714630D01*
X161250004Y-120694435D01*
X161249996Y-120694435D01*
X161070750Y-120714630D01*
X161070745Y-120714631D01*
X160900476Y-120774211D01*
X160747737Y-120870184D01*
X160620184Y-120997737D01*
X160524211Y-121150476D01*
X160464631Y-121320745D01*
X160464630Y-121320750D01*
X160444435Y-121499996D01*
X155299058Y-121499996D01*
X155261745Y-121435368D01*
X155230520Y-121381284D01*
X155118716Y-121269480D01*
X155114385Y-121265149D01*
X155114374Y-121265139D01*
X152705700Y-118856465D01*
X152672215Y-118795142D01*
X152670163Y-118782686D01*
X152660368Y-118695745D01*
X152600789Y-118525478D01*
X152504816Y-118372738D01*
X152377262Y-118245184D01*
X152283159Y-118186055D01*
X152224523Y-118149211D01*
X152111140Y-118109537D01*
X152054364Y-118068815D01*
X152028617Y-118003862D01*
X152042073Y-117935301D01*
X152047095Y-117926532D01*
X152060147Y-117905761D01*
X152119726Y-117735494D01*
X152119727Y-117735488D01*
X152139923Y-117556242D01*
X152139923Y-117556235D01*
X152119727Y-117376989D01*
X152119724Y-117376976D01*
X152060148Y-117206720D01*
X152060144Y-117206711D01*
X152019506Y-117142035D01*
X152000500Y-117076064D01*
X152000500Y-116668263D01*
X152020185Y-116601224D01*
X152072989Y-116555469D01*
X152142147Y-116545525D01*
X152205703Y-116574550D01*
X152229492Y-116602289D01*
X152245184Y-116627262D01*
X152372738Y-116754816D01*
X152525478Y-116850789D01*
X152695745Y-116910368D01*
X152782669Y-116920161D01*
X152847080Y-116947226D01*
X152856465Y-116955700D01*
X153015139Y-117114374D01*
X153015149Y-117114385D01*
X153019479Y-117118715D01*
X153019480Y-117118716D01*
X153131284Y-117230520D01*
X153131286Y-117230521D01*
X153131290Y-117230524D01*
X153226284Y-117285368D01*
X153268216Y-117309577D01*
X153380019Y-117339534D01*
X153420942Y-117350500D01*
X153420943Y-117350500D01*
X160417588Y-117350500D01*
X160484627Y-117370185D01*
X160494903Y-117377555D01*
X160497736Y-117379814D01*
X160497738Y-117379816D01*
X160650478Y-117475789D01*
X160776097Y-117519745D01*
X160820745Y-117535368D01*
X160820750Y-117535369D01*
X160999996Y-117555565D01*
X161000000Y-117555565D01*
X161000004Y-117555565D01*
X161179249Y-117535369D01*
X161179252Y-117535368D01*
X161179255Y-117535368D01*
X161349522Y-117475789D01*
X161502262Y-117379816D01*
X161629816Y-117252262D01*
X161725789Y-117099522D01*
X161785368Y-116929255D01*
X161785369Y-116929249D01*
X161805565Y-116750003D01*
X161805565Y-116749996D01*
X161785369Y-116570750D01*
X161785368Y-116570745D01*
X161725788Y-116400476D01*
X161686582Y-116338080D01*
X161629816Y-116247738D01*
X161502262Y-116120184D01*
X161491117Y-116113181D01*
X161349523Y-116024211D01*
X161179254Y-115964631D01*
X161179249Y-115964630D01*
X161000004Y-115944435D01*
X160999996Y-115944435D01*
X160820750Y-115964630D01*
X160820745Y-115964631D01*
X160650476Y-116024211D01*
X160497736Y-116120185D01*
X160494903Y-116122445D01*
X160492724Y-116123334D01*
X160491842Y-116123889D01*
X160491744Y-116123734D01*
X160430217Y-116148855D01*
X160417588Y-116149500D01*
X153800097Y-116149500D01*
X153733058Y-116129815D01*
X153712416Y-116113181D01*
X153705700Y-116106465D01*
X153672215Y-116045142D01*
X153670163Y-116032686D01*
X153660368Y-115945745D01*
X153600789Y-115775478D01*
X153504816Y-115622738D01*
X153377262Y-115495184D01*
X153351902Y-115479249D01*
X153224523Y-115399211D01*
X153054254Y-115339631D01*
X153054249Y-115339630D01*
X152875004Y-115319435D01*
X152874996Y-115319435D01*
X152695750Y-115339630D01*
X152695745Y-115339631D01*
X152525476Y-115399211D01*
X152372737Y-115495184D01*
X152245184Y-115622737D01*
X152245182Y-115622740D01*
X152229493Y-115647709D01*
X152177158Y-115694000D01*
X152108104Y-115704647D01*
X152044256Y-115676271D01*
X152005885Y-115617881D01*
X152000500Y-115581736D01*
X152000500Y-115299996D01*
X187444435Y-115299996D01*
X187444435Y-115300003D01*
X187464630Y-115479249D01*
X187464631Y-115479254D01*
X187524211Y-115649523D01*
X187565121Y-115714630D01*
X187603354Y-115775478D01*
X187620185Y-115802263D01*
X187622445Y-115805097D01*
X187623334Y-115807275D01*
X187623889Y-115808158D01*
X187623734Y-115808255D01*
X187648855Y-115869783D01*
X187649500Y-115882412D01*
X187649500Y-115917587D01*
X187629815Y-115984626D01*
X187622450Y-115994896D01*
X187620186Y-115997734D01*
X187524211Y-116150476D01*
X187464631Y-116320745D01*
X187464630Y-116320750D01*
X187444435Y-116499996D01*
X187444435Y-116500003D01*
X187464630Y-116679249D01*
X187464631Y-116679254D01*
X187524211Y-116849523D01*
X187590927Y-116955700D01*
X187620184Y-117002262D01*
X187747738Y-117129816D01*
X187838080Y-117186582D01*
X187870115Y-117206711D01*
X187900478Y-117225789D01*
X188070745Y-117285368D01*
X188070750Y-117285369D01*
X188249996Y-117305565D01*
X188250000Y-117305565D01*
X188250004Y-117305565D01*
X188429249Y-117285369D01*
X188429252Y-117285368D01*
X188429255Y-117285368D01*
X188599522Y-117225789D01*
X188752262Y-117129816D01*
X188879816Y-117002262D01*
X188975789Y-116849522D01*
X189035368Y-116679255D01*
X189035369Y-116679249D01*
X189055565Y-116500003D01*
X189055565Y-116499996D01*
X189035369Y-116320750D01*
X189035368Y-116320745D01*
X188975788Y-116150476D01*
X188942645Y-116097730D01*
X188879816Y-115997738D01*
X188879814Y-115997736D01*
X188879813Y-115997734D01*
X188877550Y-115994896D01*
X188876659Y-115992715D01*
X188876111Y-115991842D01*
X188876264Y-115991745D01*
X188851144Y-115930209D01*
X188850500Y-115917587D01*
X188850500Y-115882412D01*
X188870185Y-115815373D01*
X188877555Y-115805097D01*
X188879810Y-115802267D01*
X188879816Y-115802262D01*
X188975789Y-115649522D01*
X189035368Y-115479255D01*
X189051100Y-115339630D01*
X189055565Y-115300003D01*
X189055565Y-115299996D01*
X189035369Y-115120750D01*
X189035368Y-115120745D01*
X189021356Y-115080700D01*
X188975789Y-114950478D01*
X188879816Y-114797738D01*
X188752262Y-114670184D01*
X188599523Y-114574211D01*
X188429254Y-114514631D01*
X188429249Y-114514630D01*
X188250004Y-114494435D01*
X188249996Y-114494435D01*
X188070750Y-114514630D01*
X188070745Y-114514631D01*
X187900476Y-114574211D01*
X187747737Y-114670184D01*
X187620184Y-114797737D01*
X187524211Y-114950476D01*
X187464631Y-115120745D01*
X187464630Y-115120750D01*
X187444435Y-115299996D01*
X152000500Y-115299996D01*
X152000500Y-110301566D01*
X152020185Y-110234527D01*
X152036815Y-110213889D01*
X152719270Y-109531433D01*
X152780591Y-109497950D01*
X152793046Y-109495898D01*
X152879990Y-109486103D01*
X153050257Y-109426524D01*
X153202997Y-109330551D01*
X153330551Y-109202997D01*
X153426524Y-109050257D01*
X153486103Y-108879990D01*
X153493935Y-108810478D01*
X153506300Y-108700738D01*
X153506300Y-108700731D01*
X153486104Y-108521485D01*
X153486103Y-108521480D01*
X153426523Y-108351210D01*
X153390832Y-108294410D01*
X153389972Y-108293042D01*
X153370972Y-108225807D01*
X153389973Y-108161098D01*
X153475787Y-108024526D01*
X153475787Y-108024524D01*
X153475789Y-108024522D01*
X153535368Y-107854255D01*
X153545988Y-107760000D01*
X153555565Y-107675003D01*
X153555565Y-107674996D01*
X153535369Y-107495750D01*
X153535368Y-107495745D01*
X153492172Y-107372299D01*
X153475789Y-107325478D01*
X153465201Y-107308628D01*
X153398438Y-107202375D01*
X153379816Y-107172738D01*
X153252262Y-107045184D01*
X153234797Y-107034210D01*
X153099523Y-106949211D01*
X152929254Y-106889631D01*
X152929249Y-106889630D01*
X152750004Y-106869435D01*
X152749996Y-106869435D01*
X152570750Y-106889630D01*
X152570745Y-106889631D01*
X152400476Y-106949211D01*
X152247737Y-107045184D01*
X152120184Y-107172737D01*
X152024210Y-107325478D01*
X151964630Y-107495750D01*
X151954837Y-107582667D01*
X151927770Y-107647081D01*
X151919298Y-107656464D01*
X150631286Y-108944478D01*
X150519481Y-109056282D01*
X150519475Y-109056290D01*
X150474489Y-109134210D01*
X150474489Y-109134211D01*
X150440423Y-109193215D01*
X150399499Y-109345943D01*
X150399499Y-109345945D01*
X150399499Y-109514046D01*
X150399500Y-109514059D01*
X150399500Y-115699902D01*
X150379815Y-115766941D01*
X150363181Y-115787583D01*
X149731465Y-116419298D01*
X149670142Y-116452783D01*
X149657668Y-116454837D01*
X149570750Y-116464630D01*
X149400478Y-116524210D01*
X149247737Y-116620184D01*
X149120184Y-116747737D01*
X149024211Y-116900476D01*
X148964631Y-117070745D01*
X148964630Y-117070750D01*
X148944435Y-117249996D01*
X138030342Y-117249996D01*
X138099522Y-117225789D01*
X138252262Y-117129816D01*
X138379816Y-117002262D01*
X138475789Y-116849522D01*
X138535368Y-116679255D01*
X138545161Y-116592329D01*
X138572226Y-116527918D01*
X138580690Y-116518543D01*
X140018536Y-115080698D01*
X140079857Y-115047215D01*
X140092310Y-115045163D01*
X140179255Y-115035368D01*
X140349522Y-114975789D01*
X140502262Y-114879816D01*
X140629816Y-114752262D01*
X140725789Y-114599522D01*
X140785368Y-114429255D01*
X140800020Y-114299215D01*
X140805565Y-114250003D01*
X140805565Y-114249996D01*
X140785369Y-114070750D01*
X140785368Y-114070745D01*
X140725788Y-113900476D01*
X140629815Y-113747737D01*
X140502262Y-113620184D01*
X140349523Y-113524211D01*
X140179254Y-113464631D01*
X140179249Y-113464630D01*
X140000004Y-113444435D01*
X139999996Y-113444435D01*
X139820750Y-113464630D01*
X139820745Y-113464631D01*
X139650476Y-113524211D01*
X139497737Y-113620184D01*
X139370184Y-113747737D01*
X139274210Y-113900478D01*
X139214630Y-114070750D01*
X139204837Y-114157667D01*
X139177770Y-114222081D01*
X139169298Y-114231464D01*
X137731465Y-115669298D01*
X137670142Y-115702783D01*
X137657668Y-115704837D01*
X137570750Y-115714630D01*
X137400478Y-115774210D01*
X137247737Y-115870184D01*
X137120184Y-115997737D01*
X137024211Y-116150476D01*
X136964631Y-116320745D01*
X136964630Y-116320750D01*
X136944435Y-116499996D01*
X128250500Y-116499996D01*
X128250500Y-114249996D01*
X135444435Y-114249996D01*
X135444435Y-114250003D01*
X135464630Y-114429249D01*
X135464631Y-114429254D01*
X135524211Y-114599523D01*
X135568611Y-114670184D01*
X135620184Y-114752262D01*
X135747738Y-114879816D01*
X135838080Y-114936582D01*
X135860192Y-114950476D01*
X135900478Y-114975789D01*
X136070742Y-115035367D01*
X136070745Y-115035368D01*
X136070750Y-115035369D01*
X136249996Y-115055565D01*
X136250000Y-115055565D01*
X136250004Y-115055565D01*
X136429249Y-115035369D01*
X136429252Y-115035368D01*
X136429255Y-115035368D01*
X136599522Y-114975789D01*
X136752262Y-114879816D01*
X136879816Y-114752262D01*
X136975789Y-114599522D01*
X137035368Y-114429255D01*
X137045161Y-114342329D01*
X137072226Y-114277918D01*
X137080690Y-114268543D01*
X138108506Y-113240728D01*
X138108511Y-113240724D01*
X138118714Y-113230520D01*
X138118716Y-113230520D01*
X138230520Y-113118716D01*
X138309577Y-112981784D01*
X138339873Y-112868716D01*
X138350500Y-112829058D01*
X138350500Y-112670943D01*
X138350500Y-112332412D01*
X138370185Y-112265373D01*
X138377555Y-112255097D01*
X138379810Y-112252267D01*
X138379816Y-112252262D01*
X138475789Y-112099522D01*
X138535368Y-111929255D01*
X138536683Y-111917587D01*
X138555565Y-111750003D01*
X138555565Y-111749996D01*
X138535369Y-111570750D01*
X138535368Y-111570745D01*
X138475788Y-111400476D01*
X138379815Y-111247737D01*
X138252262Y-111120184D01*
X138099523Y-111024211D01*
X137929254Y-110964631D01*
X137929249Y-110964630D01*
X137750004Y-110944435D01*
X137749996Y-110944435D01*
X137570750Y-110964630D01*
X137570745Y-110964631D01*
X137400476Y-111024211D01*
X137247737Y-111120184D01*
X137120184Y-111247737D01*
X137024211Y-111400476D01*
X136964631Y-111570745D01*
X136964630Y-111570750D01*
X136944435Y-111749996D01*
X136944435Y-111750003D01*
X136964630Y-111929249D01*
X136964631Y-111929254D01*
X137024211Y-112099523D01*
X137120185Y-112252263D01*
X137122445Y-112255097D01*
X137123334Y-112257275D01*
X137123889Y-112258158D01*
X137123734Y-112258255D01*
X137148855Y-112319783D01*
X137149500Y-112332412D01*
X137149500Y-112449902D01*
X137129815Y-112516941D01*
X137113181Y-112537583D01*
X136231465Y-113419298D01*
X136170142Y-113452783D01*
X136157668Y-113454837D01*
X136070750Y-113464630D01*
X135900478Y-113524210D01*
X135747737Y-113620184D01*
X135620184Y-113747737D01*
X135524211Y-113900476D01*
X135464631Y-114070745D01*
X135464630Y-114070750D01*
X135444435Y-114249996D01*
X128250500Y-114249996D01*
X128250500Y-109763720D01*
X128270185Y-109696681D01*
X128322989Y-109650926D01*
X128392147Y-109640982D01*
X128443391Y-109660618D01*
X128565000Y-109741875D01*
X128565008Y-109741880D01*
X128737894Y-109813491D01*
X128737902Y-109813493D01*
X128921428Y-109849999D01*
X128921431Y-109850000D01*
X129165000Y-109850000D01*
X129165000Y-109200000D01*
X129665000Y-109200000D01*
X129665000Y-109850000D01*
X129908569Y-109850000D01*
X129908571Y-109849999D01*
X130092097Y-109813493D01*
X130092105Y-109813491D01*
X130264991Y-109741880D01*
X130265000Y-109741875D01*
X130420589Y-109637913D01*
X130420593Y-109637910D01*
X130552910Y-109505593D01*
X130552913Y-109505589D01*
X130656875Y-109350000D01*
X130656880Y-109349991D01*
X130728492Y-109177103D01*
X130728493Y-109177100D01*
X130733884Y-109150000D01*
X129981988Y-109150000D01*
X129999205Y-109140060D01*
X130055060Y-109084205D01*
X130094556Y-109015796D01*
X130115000Y-108939496D01*
X130115000Y-108860504D01*
X130094556Y-108784204D01*
X130055060Y-108715795D01*
X129999205Y-108659940D01*
X129981988Y-108650000D01*
X130733884Y-108650000D01*
X130733884Y-108649999D01*
X130728493Y-108622899D01*
X130728492Y-108622896D01*
X130656880Y-108450008D01*
X130656875Y-108449999D01*
X130552913Y-108294410D01*
X130552910Y-108294406D01*
X130420593Y-108162089D01*
X130420589Y-108162086D01*
X130265000Y-108058124D01*
X130264991Y-108058119D01*
X130092105Y-107986508D01*
X130092097Y-107986506D01*
X129908570Y-107950000D01*
X129665000Y-107950000D01*
X129665000Y-108600000D01*
X129165000Y-108600000D01*
X129165000Y-107950000D01*
X128921430Y-107950000D01*
X128737902Y-107986506D01*
X128737894Y-107986508D01*
X128565008Y-108058119D01*
X128564999Y-108058124D01*
X128443391Y-108139381D01*
X128376713Y-108160259D01*
X128309333Y-108141774D01*
X128262643Y-108089796D01*
X128250500Y-108036279D01*
X128250500Y-101113720D01*
X128270185Y-101046681D01*
X128322989Y-101000926D01*
X128392147Y-100990982D01*
X128443391Y-101010618D01*
X128565000Y-101091875D01*
X128565008Y-101091880D01*
X128737894Y-101163491D01*
X128737902Y-101163493D01*
X128921428Y-101199999D01*
X128921431Y-101200000D01*
X129165000Y-101200000D01*
X129165000Y-100550000D01*
X129665000Y-100550000D01*
X129665000Y-101200000D01*
X129908569Y-101200000D01*
X129908571Y-101199999D01*
X130092097Y-101163493D01*
X130092105Y-101163491D01*
X130264991Y-101091880D01*
X130265000Y-101091875D01*
X130420589Y-100987913D01*
X130420593Y-100987910D01*
X130552910Y-100855593D01*
X130552913Y-100855589D01*
X130656875Y-100700000D01*
X130656880Y-100699991D01*
X130728492Y-100527103D01*
X130728493Y-100527100D01*
X130733884Y-100500000D01*
X129981988Y-100500000D01*
X129999205Y-100490060D01*
X130055060Y-100434205D01*
X130094556Y-100365796D01*
X130115000Y-100289496D01*
X130115000Y-100210504D01*
X130094556Y-100134204D01*
X130055060Y-100065795D01*
X129999205Y-100009940D01*
X129981988Y-100000000D01*
X130733884Y-100000000D01*
X130733884Y-99999999D01*
X130728493Y-99972899D01*
X130728492Y-99972896D01*
X130656880Y-99800008D01*
X130656875Y-99799999D01*
X130552913Y-99644410D01*
X130552910Y-99644406D01*
X130420593Y-99512089D01*
X130420589Y-99512086D01*
X130265000Y-99408124D01*
X130264991Y-99408119D01*
X130092105Y-99336508D01*
X130092097Y-99336506D01*
X129908570Y-99300000D01*
X129665000Y-99300000D01*
X129665000Y-99950000D01*
X129165000Y-99950000D01*
X129165000Y-99300000D01*
X128921430Y-99300000D01*
X128737902Y-99336506D01*
X128737894Y-99336508D01*
X128565008Y-99408119D01*
X128564999Y-99408124D01*
X128443391Y-99489381D01*
X128376713Y-99510259D01*
X128309333Y-99491774D01*
X128262643Y-99439796D01*
X128250500Y-99386279D01*
X128250500Y-96249996D01*
X129994415Y-96249996D01*
X129994415Y-96250003D01*
X130014738Y-96598927D01*
X130014739Y-96598938D01*
X130075428Y-96943127D01*
X130075430Y-96943134D01*
X130175674Y-97277972D01*
X130314107Y-97598895D01*
X130314113Y-97598908D01*
X130488870Y-97901597D01*
X130697584Y-98181949D01*
X130697589Y-98181955D01*
X130821463Y-98313253D01*
X130937442Y-98436183D01*
X131113903Y-98584251D01*
X131205186Y-98660847D01*
X131205194Y-98660853D01*
X131497203Y-98852911D01*
X131497207Y-98852913D01*
X131809549Y-99009777D01*
X131958656Y-99064047D01*
X132014920Y-99105473D01*
X132039856Y-99170741D01*
X132025546Y-99239130D01*
X131976535Y-99288926D01*
X131940438Y-99302186D01*
X131767900Y-99336506D01*
X131767894Y-99336508D01*
X131595008Y-99408119D01*
X131594999Y-99408124D01*
X131439410Y-99512086D01*
X131439406Y-99512089D01*
X131307089Y-99644406D01*
X131307086Y-99644410D01*
X131203124Y-99799999D01*
X131203119Y-99800008D01*
X131131507Y-99972896D01*
X131131506Y-99972899D01*
X131126115Y-99999999D01*
X131126116Y-100000000D01*
X131878012Y-100000000D01*
X131860795Y-100009940D01*
X131804940Y-100065795D01*
X131765444Y-100134204D01*
X131745000Y-100210504D01*
X131745000Y-100289496D01*
X131765444Y-100365796D01*
X131804940Y-100434205D01*
X131860795Y-100490060D01*
X131878012Y-100500000D01*
X131126116Y-100500000D01*
X131131506Y-100527100D01*
X131131507Y-100527103D01*
X131203119Y-100699991D01*
X131203124Y-100700000D01*
X131307086Y-100855589D01*
X131307089Y-100855593D01*
X131439409Y-100987913D01*
X131600072Y-101095264D01*
X131598656Y-101097381D01*
X131640569Y-101138568D01*
X131656017Y-101206708D01*
X131645546Y-101249363D01*
X131644212Y-101252359D01*
X131588996Y-101422297D01*
X131588995Y-101422299D01*
X131570318Y-101599999D01*
X131588995Y-101777699D01*
X131588997Y-101777704D01*
X131606267Y-101830858D01*
X131608262Y-101900699D01*
X131572181Y-101960532D01*
X131563835Y-101967542D01*
X131561310Y-101969479D01*
X131294479Y-102236310D01*
X131279916Y-102261534D01*
X131273761Y-102272197D01*
X131215423Y-102373241D01*
X131174499Y-102525969D01*
X131174499Y-102525971D01*
X131174499Y-102694072D01*
X131174500Y-102694085D01*
X131174500Y-106458304D01*
X131174499Y-106458322D01*
X131174499Y-106624028D01*
X131174498Y-106624028D01*
X131174499Y-106624031D01*
X131215423Y-106776759D01*
X131216750Y-106779057D01*
X131216753Y-106779063D01*
X131216755Y-106779066D01*
X131294477Y-106913686D01*
X131294481Y-106913691D01*
X131413349Y-107032559D01*
X131413355Y-107032564D01*
X131445165Y-107064374D01*
X131445175Y-107064385D01*
X131449505Y-107068715D01*
X131449506Y-107068716D01*
X131561310Y-107180520D01*
X131561312Y-107180521D01*
X131563828Y-107182452D01*
X131565410Y-107184619D01*
X131567057Y-107186266D01*
X131566800Y-107186522D01*
X131605027Y-107238882D01*
X131609179Y-107308628D01*
X131606268Y-107319140D01*
X131588995Y-107372300D01*
X131570318Y-107550000D01*
X131588995Y-107727700D01*
X131588996Y-107727702D01*
X131644208Y-107897627D01*
X131645541Y-107900621D01*
X131645793Y-107902508D01*
X131646217Y-107903810D01*
X131645978Y-107903887D01*
X131654825Y-107969871D01*
X131625197Y-108033147D01*
X131599319Y-108053611D01*
X131600071Y-108054736D01*
X131439410Y-108162086D01*
X131439406Y-108162089D01*
X131307089Y-108294406D01*
X131307086Y-108294410D01*
X131203124Y-108449999D01*
X131203119Y-108450008D01*
X131131507Y-108622896D01*
X131131506Y-108622899D01*
X131126115Y-108649999D01*
X131126116Y-108650000D01*
X131878012Y-108650000D01*
X131860795Y-108659940D01*
X131804940Y-108715795D01*
X131765444Y-108784204D01*
X131745000Y-108860504D01*
X131745000Y-108939496D01*
X131765444Y-109015796D01*
X131804940Y-109084205D01*
X131860795Y-109140060D01*
X131878012Y-109150000D01*
X131126116Y-109150000D01*
X131131506Y-109177100D01*
X131131507Y-109177103D01*
X131203119Y-109349991D01*
X131203124Y-109350000D01*
X131307086Y-109505589D01*
X131307089Y-109505593D01*
X131439406Y-109637910D01*
X131439410Y-109637913D01*
X131594999Y-109741875D01*
X131595008Y-109741880D01*
X131767894Y-109813491D01*
X131767902Y-109813493D01*
X131951428Y-109849999D01*
X131951431Y-109850000D01*
X132545000Y-109850000D01*
X132545000Y-109200000D01*
X133045000Y-109200000D01*
X133045000Y-109850000D01*
X133638569Y-109850000D01*
X133638571Y-109849999D01*
X133822097Y-109813493D01*
X133822105Y-109813491D01*
X133994991Y-109741880D01*
X133995000Y-109741875D01*
X134150589Y-109637913D01*
X134150593Y-109637910D01*
X134282910Y-109505593D01*
X134282913Y-109505589D01*
X134386875Y-109350000D01*
X134386880Y-109349991D01*
X134458492Y-109177103D01*
X134458493Y-109177100D01*
X134463884Y-109150000D01*
X133711988Y-109150000D01*
X133729205Y-109140060D01*
X133785060Y-109084205D01*
X133824556Y-109015796D01*
X133845000Y-108939496D01*
X133845000Y-108860504D01*
X133824556Y-108784204D01*
X133785060Y-108715795D01*
X133729205Y-108659940D01*
X133711988Y-108650000D01*
X134463884Y-108650000D01*
X134463884Y-108649999D01*
X134458493Y-108622899D01*
X134458492Y-108622896D01*
X134386880Y-108450008D01*
X134287146Y-108300745D01*
X134265871Y-108298650D01*
X134256027Y-108304026D01*
X134186335Y-108299042D01*
X134141988Y-108270541D01*
X133633628Y-107762181D01*
X133600143Y-107700858D01*
X133603215Y-107657900D01*
X133605448Y-107663291D01*
X133661709Y-107719552D01*
X133735218Y-107750000D01*
X133814782Y-107750000D01*
X133888291Y-107719552D01*
X133944552Y-107663291D01*
X133975000Y-107589782D01*
X133975000Y-107526989D01*
X134016805Y-107518103D01*
X134086470Y-107523419D01*
X134130265Y-107551712D01*
X134526651Y-107948099D01*
X134526652Y-107948099D01*
X134555790Y-107897631D01*
X134611003Y-107727702D01*
X134611004Y-107727700D01*
X134629681Y-107550000D01*
X134611004Y-107372299D01*
X134611003Y-107372297D01*
X134555793Y-107202375D01*
X134555791Y-107202371D01*
X134547206Y-107187502D01*
X134530732Y-107119602D01*
X134547204Y-107063501D01*
X134556250Y-107047835D01*
X134611497Y-106877803D01*
X134630185Y-106700000D01*
X134611497Y-106522197D01*
X134604283Y-106499996D01*
X153944435Y-106499996D01*
X153944435Y-106500003D01*
X153964630Y-106679249D01*
X153964631Y-106679254D01*
X154024211Y-106849523D01*
X154064528Y-106913686D01*
X154102820Y-106974628D01*
X154120185Y-107002263D01*
X154122445Y-107005097D01*
X154123334Y-107007275D01*
X154123889Y-107008158D01*
X154123734Y-107008255D01*
X154148855Y-107069783D01*
X154149500Y-107082412D01*
X154149500Y-111917587D01*
X154129815Y-111984626D01*
X154122450Y-111994896D01*
X154120186Y-111997734D01*
X154024211Y-112150476D01*
X153964631Y-112320745D01*
X153964630Y-112320750D01*
X153944435Y-112499996D01*
X153944435Y-112500003D01*
X153964630Y-112679249D01*
X153964631Y-112679254D01*
X154024211Y-112849523D01*
X154120184Y-113002262D01*
X154247738Y-113129816D01*
X154400478Y-113225789D01*
X154443160Y-113240724D01*
X154570745Y-113285368D01*
X154570750Y-113285369D01*
X154749996Y-113305565D01*
X154750000Y-113305565D01*
X154750004Y-113305565D01*
X154929249Y-113285369D01*
X154929252Y-113285368D01*
X154929255Y-113285368D01*
X155099522Y-113225789D01*
X155252262Y-113129816D01*
X155379816Y-113002262D01*
X155475789Y-112849522D01*
X155535368Y-112679255D01*
X155536305Y-112670943D01*
X155555565Y-112500003D01*
X155555565Y-112499996D01*
X155535369Y-112320750D01*
X155535368Y-112320745D01*
X155511405Y-112252262D01*
X155475789Y-112150478D01*
X155379816Y-111997738D01*
X155379814Y-111997736D01*
X155379813Y-111997734D01*
X155377550Y-111994896D01*
X155376659Y-111992715D01*
X155376111Y-111991842D01*
X155376264Y-111991745D01*
X155351144Y-111930209D01*
X155350500Y-111917587D01*
X155350500Y-111579996D01*
X157579433Y-111579996D01*
X157579433Y-111580003D01*
X157599628Y-111759249D01*
X157599629Y-111759254D01*
X157659209Y-111929523D01*
X157755182Y-112082262D01*
X157767418Y-112094498D01*
X157800903Y-112155821D01*
X157803737Y-112182179D01*
X157803737Y-113467587D01*
X157784052Y-113534626D01*
X157776687Y-113544896D01*
X157774423Y-113547734D01*
X157678448Y-113700476D01*
X157618868Y-113870745D01*
X157618867Y-113870750D01*
X157598672Y-114049996D01*
X157598672Y-114050003D01*
X157618867Y-114229249D01*
X157618868Y-114229254D01*
X157678448Y-114399523D01*
X157738086Y-114494435D01*
X157774421Y-114552262D01*
X157901975Y-114679816D01*
X158054715Y-114775789D01*
X158117439Y-114797737D01*
X158224982Y-114835368D01*
X158224987Y-114835369D01*
X158404233Y-114855565D01*
X158404237Y-114855565D01*
X158404241Y-114855565D01*
X158583486Y-114835369D01*
X158583489Y-114835368D01*
X158583492Y-114835368D01*
X158753759Y-114775789D01*
X158906499Y-114679816D01*
X159034053Y-114552262D01*
X159130026Y-114399522D01*
X159189605Y-114229255D01*
X159189606Y-114229249D01*
X159209802Y-114050003D01*
X159209802Y-114049996D01*
X159189606Y-113870750D01*
X159189605Y-113870745D01*
X159146563Y-113747738D01*
X159130026Y-113700478D01*
X159034053Y-113547738D01*
X159034051Y-113547736D01*
X159034050Y-113547734D01*
X159031787Y-113544896D01*
X159030896Y-113542715D01*
X159030348Y-113541842D01*
X159030501Y-113541745D01*
X159005381Y-113480209D01*
X159004737Y-113467587D01*
X159004737Y-112134023D01*
X159023743Y-112068051D01*
X159110787Y-111929522D01*
X159170366Y-111759255D01*
X159170367Y-111759249D01*
X159190563Y-111580003D01*
X159190563Y-111579996D01*
X159170367Y-111400750D01*
X159170366Y-111400745D01*
X159170272Y-111400476D01*
X159110787Y-111230478D01*
X159014814Y-111077738D01*
X158887260Y-110950184D01*
X158878111Y-110944435D01*
X158734521Y-110854211D01*
X158564252Y-110794631D01*
X158564247Y-110794630D01*
X158385002Y-110774435D01*
X158384994Y-110774435D01*
X158205748Y-110794630D01*
X158205743Y-110794631D01*
X158035474Y-110854211D01*
X157882735Y-110950184D01*
X157755182Y-111077737D01*
X157659209Y-111230476D01*
X157599629Y-111400745D01*
X157599628Y-111400750D01*
X157579433Y-111579996D01*
X155350500Y-111579996D01*
X155350500Y-107759996D01*
X164679435Y-107759996D01*
X164679435Y-107760003D01*
X164699630Y-107939249D01*
X164699631Y-107939254D01*
X164759211Y-108109523D01*
X164855184Y-108262262D01*
X164965241Y-108372319D01*
X164998726Y-108433642D01*
X164993742Y-108503334D01*
X164965241Y-108547681D01*
X164855184Y-108657737D01*
X164759211Y-108810476D01*
X164699631Y-108980745D01*
X164699630Y-108980750D01*
X164679435Y-109159996D01*
X164679435Y-109160003D01*
X164699630Y-109339249D01*
X164699631Y-109339254D01*
X164759211Y-109509523D01*
X164839883Y-109637910D01*
X164855184Y-109662262D01*
X164982738Y-109789816D01*
X165135478Y-109885789D01*
X165305745Y-109945368D01*
X165305754Y-109945369D01*
X165306207Y-109945473D01*
X165306477Y-109945624D01*
X165312318Y-109947668D01*
X165311960Y-109948690D01*
X165367191Y-109979573D01*
X165396377Y-110033017D01*
X165397333Y-110032683D01*
X165399362Y-110038483D01*
X165399523Y-110038777D01*
X165399631Y-110039250D01*
X165399632Y-110039255D01*
X165431538Y-110130437D01*
X165459210Y-110209521D01*
X165484774Y-110250205D01*
X165555184Y-110362262D01*
X165682738Y-110489816D01*
X165835478Y-110585789D01*
X166005745Y-110645368D01*
X166005750Y-110645369D01*
X166184996Y-110665565D01*
X166185000Y-110665565D01*
X166185004Y-110665565D01*
X166364249Y-110645369D01*
X166364252Y-110645368D01*
X166364255Y-110645368D01*
X166534522Y-110585789D01*
X166687262Y-110489816D01*
X166797319Y-110379759D01*
X166858642Y-110346274D01*
X166928334Y-110351258D01*
X166972681Y-110379759D01*
X167082738Y-110489816D01*
X167235478Y-110585789D01*
X167405745Y-110645368D01*
X167405750Y-110645369D01*
X167584996Y-110665565D01*
X167585000Y-110665565D01*
X167585004Y-110665565D01*
X167764249Y-110645369D01*
X167764252Y-110645368D01*
X167764255Y-110645368D01*
X167934522Y-110585789D01*
X168087262Y-110489816D01*
X168214816Y-110362262D01*
X168310789Y-110209522D01*
X168370368Y-110039255D01*
X168370369Y-110039243D01*
X168370473Y-110038793D01*
X168370624Y-110038522D01*
X168372668Y-110032682D01*
X168373690Y-110033039D01*
X168404573Y-109977809D01*
X168458017Y-109948626D01*
X168457682Y-109947668D01*
X168463504Y-109945630D01*
X168463793Y-109945473D01*
X168464243Y-109945369D01*
X168464255Y-109945368D01*
X168634522Y-109885789D01*
X168787262Y-109789816D01*
X168914816Y-109662262D01*
X169010789Y-109509522D01*
X169070368Y-109339255D01*
X169071349Y-109330550D01*
X169090565Y-109160003D01*
X169090565Y-109159996D01*
X174479433Y-109159996D01*
X174479433Y-109160003D01*
X174499628Y-109339249D01*
X174499629Y-109339254D01*
X174559209Y-109509523D01*
X174639881Y-109637910D01*
X174655182Y-109662262D01*
X174782736Y-109789816D01*
X174935476Y-109885789D01*
X175105737Y-109945366D01*
X175105743Y-109945368D01*
X175105748Y-109945369D01*
X175284994Y-109965565D01*
X175284998Y-109965565D01*
X175285002Y-109965565D01*
X175464247Y-109945369D01*
X175464250Y-109945368D01*
X175464253Y-109945368D01*
X175634520Y-109885789D01*
X175787260Y-109789816D01*
X175787265Y-109789810D01*
X175790095Y-109787555D01*
X175792273Y-109786665D01*
X175793156Y-109786111D01*
X175793253Y-109786265D01*
X175854781Y-109761145D01*
X175867410Y-109760500D01*
X177917588Y-109760500D01*
X177984627Y-109780185D01*
X177994903Y-109787555D01*
X177997736Y-109789814D01*
X177997738Y-109789816D01*
X178150478Y-109885789D01*
X178320739Y-109945366D01*
X178320745Y-109945368D01*
X178320750Y-109945369D01*
X178499996Y-109965565D01*
X178500000Y-109965565D01*
X178500004Y-109965565D01*
X178679249Y-109945369D01*
X178679252Y-109945368D01*
X178679255Y-109945368D01*
X178849522Y-109885789D01*
X179002262Y-109789816D01*
X179129816Y-109662262D01*
X179225789Y-109509522D01*
X179285368Y-109339255D01*
X179286349Y-109330550D01*
X179305565Y-109160003D01*
X179305565Y-109159996D01*
X179285369Y-108980750D01*
X179285368Y-108980745D01*
X179225788Y-108810476D01*
X179156830Y-108700731D01*
X179129816Y-108657738D01*
X179002262Y-108530184D01*
X178959531Y-108503334D01*
X178849523Y-108434211D01*
X178679254Y-108374631D01*
X178679249Y-108374630D01*
X178500004Y-108354435D01*
X178499996Y-108354435D01*
X178320750Y-108374630D01*
X178320745Y-108374631D01*
X178150476Y-108434211D01*
X177997736Y-108530185D01*
X177994903Y-108532445D01*
X177992724Y-108533334D01*
X177991842Y-108533889D01*
X177991744Y-108533734D01*
X177930217Y-108558855D01*
X177917588Y-108559500D01*
X175867410Y-108559500D01*
X175800371Y-108539815D01*
X175790095Y-108532445D01*
X175787261Y-108530185D01*
X175787260Y-108530184D01*
X175730494Y-108494515D01*
X175634521Y-108434211D01*
X175464252Y-108374631D01*
X175464247Y-108374630D01*
X175285002Y-108354435D01*
X175284994Y-108354435D01*
X175105748Y-108374630D01*
X175105743Y-108374631D01*
X174935474Y-108434211D01*
X174782735Y-108530184D01*
X174655182Y-108657737D01*
X174559209Y-108810476D01*
X174499629Y-108980745D01*
X174499628Y-108980750D01*
X174479433Y-109159996D01*
X169090565Y-109159996D01*
X169070369Y-108980750D01*
X169070368Y-108980745D01*
X169010788Y-108810476D01*
X168941830Y-108700731D01*
X168914816Y-108657738D01*
X168804759Y-108547681D01*
X168771274Y-108486358D01*
X168776258Y-108416666D01*
X168804759Y-108372319D01*
X168825868Y-108351210D01*
X168874943Y-108302135D01*
X191249500Y-108302135D01*
X191249500Y-110397870D01*
X191249501Y-110397876D01*
X191255908Y-110457483D01*
X191306202Y-110592328D01*
X191306206Y-110592335D01*
X191392452Y-110707544D01*
X191392455Y-110707547D01*
X191507664Y-110793793D01*
X191507671Y-110793797D01*
X191642517Y-110844091D01*
X191642516Y-110844091D01*
X191649444Y-110844835D01*
X191702127Y-110850500D01*
X193797872Y-110850499D01*
X193857483Y-110844091D01*
X193992331Y-110793796D01*
X194107546Y-110707546D01*
X194193796Y-110592331D01*
X194244091Y-110457483D01*
X194250500Y-110397873D01*
X194250499Y-108302128D01*
X194244091Y-108242517D01*
X194234089Y-108215701D01*
X194193797Y-108107671D01*
X194193793Y-108107664D01*
X194107547Y-107992455D01*
X194107544Y-107992452D01*
X193992335Y-107906206D01*
X193992328Y-107906202D01*
X193857482Y-107855908D01*
X193857483Y-107855908D01*
X193797883Y-107849501D01*
X193797881Y-107849500D01*
X193797873Y-107849500D01*
X193797864Y-107849500D01*
X191702129Y-107849500D01*
X191702123Y-107849501D01*
X191642516Y-107855908D01*
X191507671Y-107906202D01*
X191507664Y-107906206D01*
X191392455Y-107992452D01*
X191392452Y-107992455D01*
X191306206Y-108107664D01*
X191306202Y-108107671D01*
X191255908Y-108242517D01*
X191249501Y-108302116D01*
X191249501Y-108302123D01*
X191249500Y-108302135D01*
X168874943Y-108302135D01*
X168914816Y-108262262D01*
X169010789Y-108109522D01*
X169070368Y-107939255D01*
X169074362Y-107903810D01*
X169090565Y-107760003D01*
X169090565Y-107759996D01*
X169070369Y-107580750D01*
X169070368Y-107580745D01*
X169046778Y-107513329D01*
X169010789Y-107410478D01*
X168914816Y-107257738D01*
X168787262Y-107130184D01*
X168770421Y-107119602D01*
X168634521Y-107034210D01*
X168543217Y-107002262D01*
X168464255Y-106974632D01*
X168464251Y-106974631D01*
X168464250Y-106974631D01*
X168463777Y-106974523D01*
X168463501Y-106974369D01*
X168457683Y-106972333D01*
X168458039Y-106971313D01*
X168402798Y-106940416D01*
X168373626Y-106886982D01*
X168372668Y-106887318D01*
X168370630Y-106881496D01*
X168370473Y-106881207D01*
X168370369Y-106880754D01*
X168370368Y-106880745D01*
X168310789Y-106710478D01*
X168291166Y-106679249D01*
X168214815Y-106557737D01*
X168087262Y-106430184D01*
X167934523Y-106334211D01*
X167764254Y-106274631D01*
X167764249Y-106274630D01*
X167585004Y-106254435D01*
X167584996Y-106254435D01*
X167405750Y-106274630D01*
X167405745Y-106274631D01*
X167235476Y-106334211D01*
X167082737Y-106430184D01*
X166972681Y-106540241D01*
X166911358Y-106573726D01*
X166841666Y-106568742D01*
X166797319Y-106540241D01*
X166687262Y-106430184D01*
X166534523Y-106334211D01*
X166364254Y-106274631D01*
X166364249Y-106274630D01*
X166185004Y-106254435D01*
X166184996Y-106254435D01*
X166005750Y-106274630D01*
X166005745Y-106274631D01*
X165835476Y-106334211D01*
X165682737Y-106430184D01*
X165555184Y-106557737D01*
X165459210Y-106710478D01*
X165399628Y-106880755D01*
X165399518Y-106881241D01*
X165399360Y-106881522D01*
X165397333Y-106887317D01*
X165396317Y-106886961D01*
X165365400Y-106942215D01*
X165311984Y-106971381D01*
X165312317Y-106972333D01*
X165306541Y-106974353D01*
X165306241Y-106974518D01*
X165305755Y-106974628D01*
X165135478Y-107034210D01*
X164982737Y-107130184D01*
X164855184Y-107257737D01*
X164759211Y-107410476D01*
X164699631Y-107580745D01*
X164699630Y-107580750D01*
X164679435Y-107759996D01*
X155350500Y-107759996D01*
X155350500Y-107082412D01*
X155370185Y-107015373D01*
X155377555Y-107005097D01*
X155379810Y-107002267D01*
X155379816Y-107002262D01*
X155475789Y-106849522D01*
X155535368Y-106679255D01*
X155535369Y-106679249D01*
X155555565Y-106500003D01*
X155555565Y-106499996D01*
X155535369Y-106320750D01*
X155535368Y-106320745D01*
X155492360Y-106197835D01*
X155475789Y-106150478D01*
X155379816Y-105997738D01*
X155252262Y-105870184D01*
X155099523Y-105774211D01*
X154929254Y-105714631D01*
X154929249Y-105714630D01*
X154750004Y-105694435D01*
X154749996Y-105694435D01*
X154570750Y-105714630D01*
X154570745Y-105714631D01*
X154400476Y-105774211D01*
X154247737Y-105870184D01*
X154120184Y-105997737D01*
X154024211Y-106150476D01*
X153964631Y-106320745D01*
X153964630Y-106320750D01*
X153944435Y-106499996D01*
X134604283Y-106499996D01*
X134556250Y-106352165D01*
X134547494Y-106336999D01*
X134531021Y-106269103D01*
X134547493Y-106213000D01*
X134556250Y-106197835D01*
X134611497Y-106027803D01*
X134630185Y-105850000D01*
X134611497Y-105672197D01*
X134556250Y-105502165D01*
X134547494Y-105486999D01*
X134531021Y-105419103D01*
X134547493Y-105363000D01*
X134556250Y-105347835D01*
X134611497Y-105177803D01*
X134630185Y-105000000D01*
X134611497Y-104822197D01*
X134556250Y-104652165D01*
X134547494Y-104636999D01*
X134531021Y-104569103D01*
X134547493Y-104513000D01*
X134556250Y-104497835D01*
X134611497Y-104327803D01*
X134630185Y-104150000D01*
X134611497Y-103972197D01*
X134556250Y-103802165D01*
X134547494Y-103786999D01*
X134531021Y-103719103D01*
X134547493Y-103663000D01*
X134556250Y-103647835D01*
X134611497Y-103477803D01*
X134630185Y-103300000D01*
X134611497Y-103122197D01*
X134556250Y-102952165D01*
X134547494Y-102936999D01*
X134531021Y-102869103D01*
X134547493Y-102813000D01*
X134556250Y-102797835D01*
X134611497Y-102627803D01*
X134630185Y-102450000D01*
X134611497Y-102272197D01*
X134556250Y-102102165D01*
X134556249Y-102102163D01*
X134547206Y-102086499D01*
X134530733Y-102018598D01*
X134547207Y-101962497D01*
X134555791Y-101947628D01*
X134611003Y-101777702D01*
X134611004Y-101777700D01*
X134613916Y-101749994D01*
X191244357Y-101749994D01*
X191244357Y-101750005D01*
X191264890Y-101997812D01*
X191264892Y-101997824D01*
X191325936Y-102238881D01*
X191425826Y-102466606D01*
X191561833Y-102674782D01*
X191561836Y-102674785D01*
X191730256Y-102857738D01*
X191926491Y-103010474D01*
X192145190Y-103128828D01*
X192380386Y-103209571D01*
X192625665Y-103250500D01*
X192874335Y-103250500D01*
X193119614Y-103209571D01*
X193354810Y-103128828D01*
X193573509Y-103010474D01*
X193769744Y-102857738D01*
X193938164Y-102674785D01*
X194074173Y-102466607D01*
X194174063Y-102238881D01*
X194235108Y-101997821D01*
X194235109Y-101997812D01*
X194255643Y-101750005D01*
X194255643Y-101749994D01*
X194235109Y-101502187D01*
X194235107Y-101502175D01*
X194174063Y-101261118D01*
X194074173Y-101033393D01*
X193938166Y-100825217D01*
X193877191Y-100758981D01*
X193769744Y-100642262D01*
X193573509Y-100489526D01*
X193573507Y-100489525D01*
X193573506Y-100489524D01*
X193354811Y-100371172D01*
X193354802Y-100371169D01*
X193119616Y-100290429D01*
X192874335Y-100249500D01*
X192625665Y-100249500D01*
X192380383Y-100290429D01*
X192145197Y-100371169D01*
X192145188Y-100371172D01*
X191926493Y-100489524D01*
X191730257Y-100642261D01*
X191561833Y-100825217D01*
X191425826Y-101033393D01*
X191325936Y-101261118D01*
X191264892Y-101502175D01*
X191264890Y-101502187D01*
X191244357Y-101749994D01*
X134613916Y-101749994D01*
X134629681Y-101600000D01*
X134611004Y-101422299D01*
X134611003Y-101422297D01*
X134555793Y-101252375D01*
X134555790Y-101252369D01*
X134526651Y-101201899D01*
X134130264Y-101598287D01*
X134068941Y-101631772D01*
X134016802Y-101631896D01*
X133975000Y-101623010D01*
X133975000Y-101560218D01*
X133944552Y-101486709D01*
X133888291Y-101430448D01*
X133814782Y-101400000D01*
X133735218Y-101400000D01*
X133661709Y-101430448D01*
X133605448Y-101486709D01*
X133603423Y-101491597D01*
X133598571Y-101457853D01*
X133627596Y-101394297D01*
X133633628Y-101387819D01*
X134141989Y-100879458D01*
X134203312Y-100845973D01*
X134271173Y-100850826D01*
X134287146Y-100849253D01*
X134347467Y-100758977D01*
X156979433Y-100758977D01*
X156979433Y-100758984D01*
X156999628Y-100938230D01*
X156999629Y-100938235D01*
X157059209Y-101108504D01*
X157120915Y-101206708D01*
X157155182Y-101261243D01*
X157282736Y-101388797D01*
X157435476Y-101484770D01*
X157556194Y-101527011D01*
X157605743Y-101544349D01*
X157605748Y-101544350D01*
X157784994Y-101564546D01*
X157784998Y-101564546D01*
X157785002Y-101564546D01*
X157964247Y-101544350D01*
X157964250Y-101544349D01*
X157964253Y-101544349D01*
X158134520Y-101484770D01*
X158287260Y-101388797D01*
X158287265Y-101388791D01*
X158290095Y-101386536D01*
X158292273Y-101385646D01*
X158293156Y-101385092D01*
X158293253Y-101385246D01*
X158354781Y-101360126D01*
X158367410Y-101359481D01*
X160417588Y-101359481D01*
X160484627Y-101379166D01*
X160494903Y-101386536D01*
X160497736Y-101388795D01*
X160497738Y-101388797D01*
X160650478Y-101484770D01*
X160771196Y-101527011D01*
X160820745Y-101544349D01*
X160820750Y-101544350D01*
X160999996Y-101564546D01*
X161000000Y-101564546D01*
X161000004Y-101564546D01*
X161179249Y-101544350D01*
X161179252Y-101544349D01*
X161179255Y-101544349D01*
X161349522Y-101484770D01*
X161502262Y-101388797D01*
X161629816Y-101261243D01*
X161725789Y-101108503D01*
X161785368Y-100938236D01*
X161795394Y-100849253D01*
X161805565Y-100758984D01*
X161805565Y-100758977D01*
X161785369Y-100579731D01*
X161785368Y-100579726D01*
X161757471Y-100500000D01*
X161725789Y-100409459D01*
X161629816Y-100256719D01*
X161502262Y-100129165D01*
X161349523Y-100033192D01*
X161179254Y-99973612D01*
X161179249Y-99973611D01*
X161000004Y-99953416D01*
X160999996Y-99953416D01*
X160820750Y-99973611D01*
X160820745Y-99973612D01*
X160650476Y-100033192D01*
X160497736Y-100129166D01*
X160494903Y-100131426D01*
X160492724Y-100132315D01*
X160491842Y-100132870D01*
X160491744Y-100132715D01*
X160430217Y-100157836D01*
X160417588Y-100158481D01*
X158367410Y-100158481D01*
X158300371Y-100138796D01*
X158290095Y-100131426D01*
X158287261Y-100129166D01*
X158287260Y-100129165D01*
X158230494Y-100093496D01*
X158134521Y-100033192D01*
X157964252Y-99973612D01*
X157964247Y-99973611D01*
X157785002Y-99953416D01*
X157784994Y-99953416D01*
X157605748Y-99973611D01*
X157605743Y-99973612D01*
X157435474Y-100033192D01*
X157282735Y-100129165D01*
X157155182Y-100256718D01*
X157059209Y-100409457D01*
X156999629Y-100579726D01*
X156999628Y-100579731D01*
X156979433Y-100758977D01*
X134347467Y-100758977D01*
X134386880Y-100699991D01*
X134458492Y-100527103D01*
X134458493Y-100527100D01*
X134463884Y-100500000D01*
X133711988Y-100500000D01*
X133729205Y-100490060D01*
X133785060Y-100434205D01*
X133824556Y-100365796D01*
X133845000Y-100289496D01*
X133845000Y-100210504D01*
X133824556Y-100134204D01*
X133785060Y-100065795D01*
X133729205Y-100009940D01*
X133711988Y-100000000D01*
X134463884Y-100000000D01*
X134463884Y-99999999D01*
X134458493Y-99972899D01*
X134458492Y-99972896D01*
X134386880Y-99800008D01*
X134386875Y-99799999D01*
X134282913Y-99644410D01*
X134282910Y-99644406D01*
X134150593Y-99512089D01*
X134150589Y-99512086D01*
X133995000Y-99408124D01*
X133994991Y-99408119D01*
X133869115Y-99355980D01*
X133814712Y-99312139D01*
X133792647Y-99245845D01*
X133809926Y-99178146D01*
X133861063Y-99130535D01*
X133874144Y-99124902D01*
X134190451Y-99009777D01*
X134502793Y-98852913D01*
X134794811Y-98660849D01*
X135062558Y-98436183D01*
X135302412Y-98181953D01*
X135511130Y-97901596D01*
X135685889Y-97598904D01*
X135824326Y-97277971D01*
X135924569Y-96943136D01*
X135941181Y-96848927D01*
X135985260Y-96598938D01*
X135985259Y-96598938D01*
X135985262Y-96598927D01*
X136005585Y-96250000D01*
X135985262Y-95901073D01*
X135968651Y-95806864D01*
X135924571Y-95556872D01*
X135924569Y-95556865D01*
X135824325Y-95222027D01*
X135695252Y-94922802D01*
X135685889Y-94901096D01*
X135511130Y-94598404D01*
X135511129Y-94598402D01*
X135302415Y-94318050D01*
X135302410Y-94318044D01*
X135086459Y-94089151D01*
X135062558Y-94063817D01*
X134863857Y-93897087D01*
X134794813Y-93839152D01*
X134794805Y-93839146D01*
X134502796Y-93647088D01*
X134190458Y-93490226D01*
X134190452Y-93490223D01*
X133862012Y-93370681D01*
X133862009Y-93370680D01*
X133521915Y-93290077D01*
X133478519Y-93285004D01*
X133174759Y-93249500D01*
X132825241Y-93249500D01*
X132521480Y-93285004D01*
X132478085Y-93290077D01*
X132478083Y-93290077D01*
X132137990Y-93370680D01*
X132137987Y-93370681D01*
X131809547Y-93490223D01*
X131809541Y-93490226D01*
X131497203Y-93647088D01*
X131205194Y-93839146D01*
X131205186Y-93839152D01*
X130937442Y-94063817D01*
X130937440Y-94063819D01*
X130697589Y-94318044D01*
X130697584Y-94318050D01*
X130488870Y-94598402D01*
X130314113Y-94901091D01*
X130314107Y-94901104D01*
X130175674Y-95222027D01*
X130075430Y-95556865D01*
X130075428Y-95556872D01*
X130014739Y-95901061D01*
X130014738Y-95901072D01*
X129994415Y-96249996D01*
X128250500Y-96249996D01*
X128250500Y-93124500D01*
X128270185Y-93057461D01*
X128322989Y-93011706D01*
X128374500Y-93000500D01*
X144126000Y-93000500D01*
X144193039Y-93020185D01*
G37*
%TD.AperFunction*%
%TD*%
M02*
